<?xml version="1.0" encoding="utf-8"?>
<!-- Generator: Adobe Illustrator 21.1.0, SVG Export Plug-In . SVG Version: 6.00 Build 0)  -->
<svg version="1.1" id="root" xmlns="http://www.w3.org/2000/svg" xmlns:xlink="http://www.w3.org/1999/xlink" x="0px" y="0px"
	 viewBox="0 0 200 121.67" enable-background="new 0 0 200 121.67" xml:space="preserve">
<g>
	<path fill="#656970" d="M25.6,116.47c-2.6,2.3-6.2,3.4-10.9,3.4s-8.3-1.1-10.9-3.4c-2.5-2.2-3.8-5.7-3.8-10.4v-21.6h7.6v21.6
		c0,0.9,0.1,1.9,0.2,2.8c0.2,0.9,0.5,1.7,1,2.4c0.5,0.7,1.2,1.3,2.2,1.7c0.9,0.4,2.2,0.7,3.7,0.7c2.7,0,4.6-0.6,5.6-1.8
		c1-1.2,1.6-3.1,1.6-5.7v-21.7h7.6v21.6C29.6,110.77,28.3,114.27,25.6,116.47z"/>
	<path fill="#656970" d="M43.3,84.47v34.7h-7.6v-34.7H43.3z"/>
	<path fill="#656970" d="M55.7,110.57c0.4,0.8,1,1.5,1.7,2s1.5,0.9,2.5,1.1c0.9,0.2,1.9,0.4,2.9,0.4c0.7,0,1.4-0.1,2.2-0.2
		c0.8-0.1,1.5-0.3,2.2-0.7c0.7-0.3,1.2-0.8,1.7-1.3c0.5-0.6,0.7-1.3,0.7-2.2c0-0.9-0.3-1.7-0.9-2.3s-1.4-1.1-2.4-1.5s-2.1-0.7-3.3-1
		c-1.2-0.3-2.5-0.6-3.7-1c-1.3-0.3-2.6-0.7-3.8-1.2s-2.3-1.1-3.3-1.8c-1-0.7-1.8-1.7-2.4-2.8c-0.6-1.1-0.9-2.5-0.9-4.1
		c0-1.8,0.4-3.3,1.1-4.6c0.8-1.3,1.8-2.4,3-3.3c1.2-0.9,2.6-1.5,4.2-1.9c1.5-0.3,3.1-0.5,4.6-0.5c1.8,0,3.6,0.2,5.2,0.6
		c1.7,0.4,3.1,1.1,4.4,2c1.3,0.9,2.3,2.1,3.1,3.5c0.8,1.4,1.1,3.1,1.1,5.1h-7.4c-0.1-1-0.3-1.9-0.7-2.6c-0.4-0.7-0.9-1.2-1.5-1.6
		c-0.6-0.4-1.3-0.7-2.1-0.8c-0.8-0.2-1.7-0.2-2.6-0.2c-0.6,0-1.2,0.1-1.8,0.2c-0.5,0-1,0.3-1.5,0.6s-1,0.7-1.3,1.2s-0.5,1.1-0.5,1.8
		s0.1,1.2,0.4,1.7c0.3,0.4,0.8,0.8,1.5,1.2c0.8,0.4,1.8,0.7,3.2,1.1c1.3,0.4,3.1,0.8,5.3,1.4c0.6,0.1,1.5,0.4,2.7,0.7
		c1.1,0.3,2.3,0.9,3.4,1.6c1.1,0.7,2.1,1.7,2.9,3c0.8,1.2,1.2,2.8,1.2,4.8c0,1.6-0.3,3.1-0.9,4.4c-0.6,1.4-1.5,2.5-2.7,3.5
		s-2.7,1.8-4.5,2.3s-3.9,0.8-6.2,0.8c-1.9,0-3.8-0.2-5.6-0.7s-3.4-1.2-4.8-2.2c-1.4-1-2.5-2.3-3.3-3.8c-0.8-1.6-1.2-3.4-1.2-5.5H55
		C55.1,108.77,55.3,109.77,55.7,110.57z"/>
	<path fill="#656970" d="M78.3,91.77v-7.3h28.4v7.3H96.3v27.4h-7.6v-27.4H78.3z"/>
</g>
<g>
	<path fill="#656970" d="M109.6,114.97c0.6-1.2,1.4-2.4,2.4-3.4s2-2,3.2-2.8c1.2-0.9,2.4-1.7,3.6-2.5c1.2-0.8,2.4-1.6,3.5-2.5
		c1.2-0.8,2.2-1.7,3.1-2.6c0.9-0.9,1.7-2,2.2-3.1s0.8-2.4,0.8-3.8c0-1.1-0.2-2.2-0.7-3.1c-0.5-0.9-1.1-1.7-1.8-2.4
		c-0.8-0.7-1.6-1.2-2.6-1.5c-1-0.4-2-0.5-3.1-0.5c-1.5,0-2.8,0.3-4,0.8c-1.1,0.5-2.1,1.3-2.8,2.2c-0.7,0.9-1.3,2-1.7,3.3
		c-0.4,1.2-0.6,2.6-0.6,4.1h-1.8c0.2-4.1,1.2-7.1,2.9-9c1.8-1.9,4.3-2.9,7.6-2.9c1.4,0,2.8,0.2,4,0.6c1.3,0.4,2.4,0.9,3.3,1.7
		c0.9,0.8,1.7,1.7,2.2,2.9c0.5,1.1,0.8,2.5,0.8,4.1c0,2-0.5,3.7-1.4,5.2c-0.9,1.5-2.1,2.9-3.5,4.1c-1.4,1.2-2.9,2.4-4.6,3.4
		c-1.6,1.1-3.2,2.1-4.6,3.2s-2.7,2.2-3.7,3.3s-1.6,2.4-1.7,3.8h20v1.8h-22.3C108.6,117.57,109,116.17,109.6,114.97z"/>
	<path fill="#656970" d="M145.3,119.77c-2.4,0-4.4-0.5-6-1.6s-2.8-2.4-3.7-4.1s-1.6-3.5-1.9-5.6c-0.4-2.1-0.5-4.1-0.5-6.1
		s0.2-4,0.5-6.1c0.4-2.1,1-3.9,1.9-5.6c0.9-1.7,2.2-3,3.7-4.1c1.6-1.1,3.5-1.6,6-1.6s4.4,0.5,6,1.6s2.8,2.4,3.7,4.1
		c0.9,1.7,1.6,3.5,1.9,5.6c0.4,2.1,0.5,4.1,0.5,6.1s-0.2,4-0.5,6.1c-0.4,2.1-1,3.9-1.9,5.6c-0.9,1.7-2.2,3-3.7,4.1
		C149.7,119.17,147.7,119.77,145.3,119.77z M145.3,118.17c2.1,0,3.8-0.5,5.1-1.5s2.4-2.3,3.2-3.8c0.8-1.6,1.3-3.3,1.6-5.1
		c0.3-1.8,0.4-3.6,0.4-5.3c0-1.7-0.1-3.4-0.4-5.3c-0.3-1.8-0.8-3.5-1.6-5.1s-1.8-2.8-3.2-3.8c-1.3-1-3-1.5-5.1-1.5s-3.8,0.5-5.1,1.5
		s-2.4,2.3-3.1,3.8c-0.8,1.6-1.3,3.3-1.6,5.1c-0.3,1.8-0.4,3.6-0.4,5.3s0.1,3.4,0.4,5.3c0.3,1.8,0.8,3.5,1.6,5.1
		c0.8,1.6,1.8,2.8,3.1,3.8S143.2,118.17,145.3,118.17z"/>
	<path fill="#656970" d="M170.1,89.27c-1.2,1.3-2.6,2.2-4.1,3c-1.6,0.7-3.2,1.1-4.9,1.3v-1.6c1.9-0.3,3.7-1,5.3-2
		c1.6-1.1,2.9-2.5,3.9-4.2h1.7v33.5h-1.8v-30H170.1z"/>
	<path fill="#656970" d="M184.4,111.87c0.5-2.5,1.2-5,2.3-7.6c1.1-2.6,2.5-5.3,4.3-8.1c1.8-2.8,4.2-5.8,7.1-8.9h-19.8v-1.6H200v1.8
		c-1.7,1.9-3.3,3.8-4.9,5.8c-1.6,2-3,4.2-4.3,6.7s-2.4,5.3-3.3,8.4c-0.9,3.1-1.6,6.7-2,10.8h-2.1
		C183.6,116.77,184,114.37,184.4,111.87z"/>
</g>
<g>
	<title>Pixelated Masochist Teapot</title>
	<path fill="#FF0000" d="M128.64,49.49c-0.21-3.04-0.75-6.08-3.29-8.33c-3.08-2.75-7.04-3.08-11.44,0.18
		c-0.86,0.64-3.4,3.11-4.15,3.72c-0.61-0.36-1.75-2.11-1.97-2.61c3.5-2.25,6.22-6.04,6.58-9.65c0.21-2.15-0.11-4.22-0.46-6.29
		c-0.21-1.29-0.68-4.15-0.61-5.94c0.07-1.61,1.39-4.79,1.82-5.51h-5.08c-0.68,1.18-1.64,3.29-1.61,5.4
		c0.14,7.58-2.47,9.83-5.01,10.66c-0.32-2.29-1.61-14.87-1.18-15.02c1.32-0.39,2.07-1.5,1.25-3.15c-3.11-6.26-6.11-6.26-8.76-7.26
		c-0.82-0.32,0.72-2.82-0.04-3.36c-0.75-0.5-1.72-0.75-2.68-0.75v3.58h-3.58v32.18h-3.58v10.73H81.3v3.58h-3.58v14.3h3.58v3.58h7.15
		v3.58h3.58v3.58c4.51-0.04,8.97-1.11,13.02-3.18c5.54-2.86,11.16-5.76,15.91-9.83C124.85,60.29,129.03,55,128.64,49.49z
		 M125.28,49.85c0.04,2.82-1.25,4.86-2.97,7.15c-1.39,1.86-5.61,5.26-6.83,5.58c0.54-5.47-1.04-10.94-3.15-13.91
		c1.36-3.08,5.47-6.33,8.58-6.01C123.24,42.95,125.46,46.38,125.28,49.85z"/>
	<g>
		<path fill="#AA0000" d="M84.88,8.73v3.58H81.3v25.03h-3.58v10.73h-3.58v3.58h-3.58v14.3h3.58v3.58h3.58v3.58h3.58v3.58h10.73
			v-3.58h-3.58v-3.58H81.3v-3.58h-3.58v-14.3h3.58v-3.58h3.58V37.33h3.58V8.73H84.88z"/>
		<rect x="88.45" y="1.58" fill="#AA0000" width="3.58" height="7.15"/>
		<g opacity="0.6">
			<g>
				<rect id="pixel_15_" x="84.88" y="5.15" fill="#AA0000" width="3.58" height="3.58"/>
			</g>
			<g>
				<rect id="pixel_14_" x="81.3" y="8.73" fill="#AA0000" width="3.58" height="3.58"/>
			</g>
			<g>
				<rect id="pixel_13_" x="77.72" y="33.76" fill="#AA0000" width="3.58" height="3.58"/>
			</g>
			<g>
				<rect id="pixel_12_" x="74.15" y="44.49" fill="#AA0000" width="3.58" height="3.58"/>
			</g>
			<g>
				<rect id="pixel_11_" x="70.57" y="48.06" fill="#AA0000" width="3.58" height="3.58"/>
			</g>
			<g>
				<rect id="pixel_10_" x="70.57" y="65.94" fill="#AA0000" width="3.58" height="3.58"/>
			</g>
			<g>
				<rect id="pixel_9_" x="74.15" y="69.52" fill="#AA0000" width="3.58" height="3.58"/>
			</g>
			<g>
				<rect id="pixel_8_" x="77.72" y="73.09" fill="#AA0000" width="3.58" height="3.58"/>
			</g>
		</g>
	</g>
	<g opacity="0.6">
		<rect x="95.6" y="19.46" fill="#FFFFFF" width="3.58" height="25.03"/>
		<rect x="99.18" y="44.49" fill="#FFFFFF" width="3.58" height="7.15"/>
		<rect x="102.75" y="51.64" fill="#FFFFFF" width="3.58" height="10.73"/>
		<g opacity="0.7">
			<rect x="95.6" y="15.88" fill="#FFFFFF" width="3.58" height="32.18"/>
			<rect x="99.18" y="40.91" fill="#FFFFFF" width="3.58" height="14.3"/>
			<rect x="102.75" y="48.06" fill="#FFFFFF" width="3.58" height="17.88"/>
		</g>
	</g>
</g>
</svg>
