<svg xmlns="http://www.w3.org/2000/svg" xmlns:xlink="http://www.w3.org/1999/xlink" viewBox="0 0 200 40" fill="white">
<g>
	<path d="M25.6,34.8c-2.6,2.3-6.2,3.4-10.9,3.4c-4.7,0-8.3-1.1-10.9-3.4C1.3,32.6,0,29.1,0,24.4V2.8h7.6v21.6c0,0.9,0.1,1.9,0.2,2.8
		c0.2,0.9,0.5,1.7,1,2.4c0.5,0.7,1.2,1.3,2.2,1.7c0.9,0.4,2.2,0.7,3.7,0.7c2.7,0,4.6-0.6,5.6-1.8c1-1.2,1.6-3.1,1.6-5.7V2.8h7.6
		v21.6C29.6,29.1,28.3,32.6,25.6,34.8z"/>
	<path d="M43.3,2.8v34.7h-7.6V2.8H43.3z"/>
	<path d="M55.7,28.9c0.4,0.8,1,1.5,1.7,2c0.7,0.5,1.5,0.9,2.5,1.1c0.9,0.2,1.9,0.4,2.9,0.4c0.7,0,1.4-0.1,2.2-0.2
		c0.8-0.1,1.5-0.3,2.2-0.7c0.7-0.3,1.2-0.8,1.7-1.3c0.5-0.6,0.7-1.3,0.7-2.2c0-0.9-0.3-1.7-0.9-2.3c-0.6-0.6-1.4-1.1-2.4-1.5
		c-1-0.4-2.1-0.7-3.3-1c-1.2-0.3-2.5-0.6-3.7-1c-1.3-0.3-2.6-0.7-3.8-1.2c-1.2-0.5-2.3-1.1-3.3-1.8c-1-0.7-1.8-1.7-2.4-2.8
		c-0.6-1.1-0.9-2.5-0.9-4.1c0-1.8,0.4-3.3,1.1-4.6c0.8-1.3,1.8-2.4,3-3.3c1.2-0.9,2.6-1.5,4.2-1.9C58.7,2.2,60.3,2,61.8,2
		c1.8,0,3.6,0.2,5.2,0.6c1.7,0.4,3.1,1.1,4.4,2c1.3,0.9,2.3,2.1,3.1,3.5c0.8,1.4,1.1,3.1,1.1,5.1h-7.4c-0.1-1-0.3-1.9-0.7-2.6
		c-0.4-0.7-0.9-1.2-1.5-1.6c-0.6-0.4-1.3-0.7-2.1-0.8c-0.8-0.2-1.7-0.2-2.6-0.2c-0.6,0-1.2,0.1-1.8,0.2C59,8.2,58.5,8.5,58,8.8
		C57.5,9.1,57,9.5,56.7,10c-0.3,0.5-0.5,1.1-0.5,1.8c0,0.7,0.1,1.2,0.4,1.7c0.3,0.4,0.8,0.8,1.5,1.2c0.8,0.4,1.8,0.7,3.2,1.1
		c1.3,0.4,3.1,0.8,5.3,1.4c0.6,0.1,1.5,0.4,2.7,0.7c1.1,0.3,2.3,0.9,3.4,1.6c1.1,0.7,2.1,1.7,2.9,3c0.8,1.2,1.2,2.8,1.2,4.8
		c0,1.6-0.3,3.1-0.9,4.4c-0.6,1.4-1.5,2.5-2.7,3.5c-1.2,1-2.7,1.8-4.5,2.3c-1.8,0.5-3.9,0.8-6.2,0.8c-1.9,0-3.8-0.2-5.6-0.7
		c-1.8-0.5-3.4-1.2-4.8-2.2c-1.4-1-2.5-2.3-3.3-3.8c-0.8-1.6-1.2-3.4-1.2-5.5h7.4C55.1,27.1,55.3,28.1,55.7,28.9z"/>
	<path d="M78.3,10.1V2.8h28.4v7.3H96.3v27.4h-7.6V10.1H78.3z"/>
</g>
<g>
	<path d="M109.6,33.3c0.6-1.2,1.4-2.4,2.4-3.4c1-1,2-2,3.2-2.8c1.2-0.9,2.4-1.7,3.6-2.5c1.2-0.8,2.4-1.6,3.5-2.5
		c1.2-0.8,2.2-1.7,3.1-2.6c0.9-0.9,1.7-2,2.2-3.1c0.5-1.1,0.8-2.4,0.8-3.8c0-1.1-0.2-2.2-0.7-3.1c-0.5-0.9-1.1-1.7-1.8-2.4
		c-0.8-0.7-1.6-1.2-2.6-1.5c-1-0.4-2-0.5-3.1-0.5c-1.5,0-2.8,0.3-4,0.8c-1.1,0.5-2.1,1.3-2.8,2.2c-0.7,0.9-1.3,2-1.7,3.3
		c-0.4,1.2-0.6,2.6-0.6,4.1h-1.8c0.2-4.1,1.2-7.1,2.9-9c1.8-1.9,4.3-2.9,7.6-2.9c1.4,0,2.8,0.2,4,0.6c1.3,0.4,2.4,0.9,3.3,1.7
		c0.9,0.8,1.7,1.7,2.2,2.9c0.5,1.1,0.8,2.5,0.8,4.1c0,2-0.5,3.7-1.4,5.2c-0.9,1.5-2.1,2.9-3.5,4.1c-1.4,1.2-2.9,2.4-4.6,3.4
		c-1.6,1.1-3.2,2.1-4.6,3.2c-1.4,1.1-2.7,2.2-3.7,3.3c-1,1.1-1.6,2.4-1.7,3.8h20v1.8h-22.3C108.6,35.9,109,34.5,109.6,33.3z"/>
	<path d="M145.3,38.1c-2.4,0-4.4-0.5-6-1.6c-1.6-1.1-2.8-2.4-3.7-4.1c-0.9-1.7-1.6-3.5-1.9-5.6c-0.4-2.1-0.5-4.1-0.5-6.1
		c0-2,0.2-4,0.5-6.1c0.4-2.1,1-3.9,1.9-5.6c0.9-1.7,2.2-3,3.7-4.1c1.6-1.1,3.5-1.6,6-1.6s4.4,0.5,6,1.6c1.6,1.1,2.8,2.4,3.7,4.1
		c0.9,1.7,1.6,3.5,1.9,5.6c0.4,2.1,0.5,4.1,0.5,6.1c0,2-0.2,4-0.5,6.1c-0.4,2.1-1,3.9-1.9,5.6c-0.9,1.7-2.2,3-3.7,4.1
		C149.7,37.5,147.7,38.1,145.3,38.1z M145.3,36.5c2.1,0,3.8-0.5,5.1-1.5c1.3-1,2.4-2.3,3.2-3.8c0.8-1.6,1.3-3.3,1.6-5.1
		c0.3-1.8,0.4-3.6,0.4-5.3c0-1.7-0.1-3.4-0.4-5.3c-0.3-1.8-0.8-3.5-1.6-5.1c-0.8-1.6-1.8-2.8-3.2-3.8c-1.3-1-3-1.5-5.1-1.5
		c-2.1,0-3.8,0.5-5.1,1.5c-1.3,1-2.4,2.3-3.1,3.8c-0.8,1.6-1.3,3.3-1.6,5.1c-0.3,1.8-0.4,3.6-0.4,5.3c0,1.7,0.1,3.4,0.4,5.3
		c0.3,1.8,0.8,3.5,1.6,5.1c0.8,1.6,1.8,2.8,3.1,3.8C141.5,36,143.2,36.5,145.3,36.5z"/>
	<path d="M170.1,7.6c-1.2,1.3-2.6,2.2-4.1,3c-1.6,0.7-3.2,1.1-4.9,1.3v-1.6c1.9-0.3,3.7-1,5.3-2c1.6-1.1,2.9-2.5,3.9-4.2h1.7v33.5
		h-1.8V7.6z"/>
	<path d="M184.4,30.2c0.5-2.5,1.2-5,2.3-7.6c1.1-2.6,2.5-5.3,4.3-8.1c1.8-2.8,4.2-5.8,7.1-8.9h-19.8V4H200v1.8
		c-1.7,1.9-3.3,3.8-4.9,5.8c-1.6,2-3,4.2-4.3,6.7c-1.3,2.5-2.4,5.3-3.3,8.4c-0.9,3.1-1.6,6.7-2,10.8h-2.1
		C183.6,35.1,184,32.7,184.4,30.2z"/>
</g>
</svg>
