<?xml version="1.0" encoding="UTF-8" standalone="no"?>
<!-- Created with Inkscape (http://www.inkscape.org/) -->

<svg
   xmlns:dc="http://purl.org/dc/elements/1.1/"
   xmlns:cc="http://creativecommons.org/ns#"
   xmlns:rdf="http://www.w3.org/1999/02/22-rdf-syntax-ns#"
   xmlns:svg="http://www.w3.org/2000/svg"
   xmlns="http://www.w3.org/2000/svg"
   version="1.1"
   width="300"
   height="94.503975"
   id="svg3780">
  <defs
     id="defs3782">
    <clipPath
       id="clipPath1392">
      <path
         d="m 152,756.0001 350,0 0,87.99994 -350,0 L 152,756.0001 Z"
         id="path1394" />
    </clipPath>
    <clipPath
       id="clipPath1396">
      <path
         d="m 152.0929,756.0001 349.4688,0 0,87.33307 -349.4688,0 L 152.0929,756.0001 Z"
         id="path1398" />
    </clipPath>
  </defs>
  <metadata
     id="metadata3785">
    <rdf:RDF>
      <cc:Work
         rdf:about="">
        <dc:format>image/svg+xml</dc:format>
        <dc:type
           rdf:resource="http://purl.org/dc/dcmitype/StillImage" />
        <dc:title></dc:title>
      </cc:Work>
    </rdf:RDF>
  </metadata>
  <g
     transform="translate(-225,-485.11019)"
     id="layer1">
    <g
       transform="translate(3.2115351e-6,-1.5357392e-5)"
       id="g3613">
      <g
         transform="matrix(1.0821117,0,0,-1.0821117,60.418487,1397.6909)"
         id="g1410"
         style="fill:#000000">
        <g
           clip-path="url(#clipPath1392)"
           id="g1412"
           style="fill:#000000">
          <path
             d="m 243.6954,797.9899 c -1.2312,-0.1729 -2.6839,-0.3798 -3.7478,-0.8924 -0.5173,0 -1.2405,-0.548 -1.0671,-1.2736 2.131,-2.85 5.3662,-4.6409 8.5998,-5.7062 0,2.8562 0.3454,5.5348 0.3454,8.3894 -1.448,-0.1776 -2.8589,-0.1776 -4.1303,-0.5172 l -1.2312,2.2988 c 1.7825,0.7225 3.5728,1.1023 5.3615,1.4466 0.3407,2.6771 0.1734,5.5301 1.4449,7.6946 1.2389,-0.3752 1.7856,-1.6149 1.9575,-2.8886 l 0.1704,-4.2533 0.3453,-0.2099 c 4.1288,0.2099 8.5998,-0.1729 11.8365,-3.0245 0.508,-0.7241 0.8952,-1.6195 0.6861,-2.674 -0.3469,-1.0714 -1.575,-1.9653 -2.4764,-2.5103 -0.7263,0 -1.6199,0.1637 -2.165,0.3706 -0.1703,0.8969 0.8889,0.8969 1.2699,1.584 0.1688,0.2037 0.5157,0.5557 0.5157,0.8908 -2.6761,1.4497 -5.7115,1.6148 -8.7639,1.9977 -0.5204,0 -0.9029,0.1699 -1.2482,-0.2053 0,-3.5817 0,-6.2542 0.1765,-9.6229 5.5381,-1.1008 11.7947,-0.724 16.2642,2.85 2.3431,1.7908 2.6869,5.1874 1.7918,7.869 -2.8573,7.1497 -10.3498,11.0633 -16.9843,13.7465 -5.5443,2.1275 -11.9759,3.2298 -18.4153,2.1275 -0.367,-0.1714 -0.8889,-0.1714 -1.0577,-0.5157 0.5172,-0.3735 1.4062,0 1.956,-0.7194 0.1734,-0.5527 -0.7217,-0.5527 -0.8983,-0.7241 -1.0577,0.1714 -2.3261,0 -2.848,0.8986 0.5219,1.0606 0.889,2.5072 2.1341,2.853 11.4493,3.571 22.9064,-0.8985 32.0265,-7.1542 3.7432,-3.0167 6.9783,-6.7683 8.3861,-11.0618 0.8967,-4.1282 -0.7155,-7.8706 -3.9197,-10.3763 -5.1927,-3.7454 -12.1757,-4.2579 -18.4354,-2.6832 -0.1765,-0.6901 0,-1.7862 -0.8936,-2.1243 -0.5126,0 -1.2374,-0.1714 -1.9621,0 -0.8936,0.8954 -0.8936,2.3297 -1.0655,3.5725 -3.7494,1.7831 -7.7062,4.6377 -9.8357,8.3816 -0.1719,0.7256 0,1.445 0.5173,1.9931 1.2684,1.2366 2.6761,1.9561 4.1288,2.4717 l 1.2312,-2.2988"
             id="path1414"
             style="fill:#000000;fill-opacity:1;fill-rule:nonzero;stroke:none" />
          <path
             d="m 272.9374,810.4627 c 0.3438,0.5172 0.6907,1.2382 1.242,1.7878 l 1.4403,-1.2706 c -0.3794,-0.3458 -0.7232,-0.9001 -0.8982,-1.2428 -0.1936,-0.3705 -0.3748,-1.0652 0,-1.4404 1.0685,1.4404 2.4871,2.85 3.7602,4.1236 -0.3826,0 -0.7233,0 -1.0733,-0.1698 -0.5451,-0.3782 -1.2745,-0.721 -1.7887,-1.2706 l -1.4403,1.2706 c 1.2343,1.2367 2.8511,2.4702 4.4695,2.8531 1.7856,0.3412 3.7478,0.5156 5.0223,-0.3829 l 0.683,-0.8877 c 0.7217,0.2007 1.2792,-0.3458 1.7918,-0.5157 1.1027,-0.897 0.8921,-2.3374 0.556,-3.4057 -0.8982,-1.6149 -2.3478,-3.0213 -3.9274,-4.1237 l -1.0981,1.7909 c 0.5467,0.2053 1.0981,0.3752 1.4434,0.7179 1.0671,0.7256 2.1279,1.7831 1.956,3.2328 -0.3376,0.721 -1.2296,0.5126 -1.956,0.5126 -2.3385,-0.6824 -4.471,-2.8546 -5.7115,-4.9805 1.4108,-0.1713 2.8604,0 4.2681,0.5172 l 1.0981,-1.7909 c -0.8936,-0.5156 -1.6138,-0.8908 -2.6823,-1.2382 -1.4434,-0.3427 -2.8837,-0.1713 -4.3023,0.1714 -0.1703,-0.1714 -0.5497,-1.2366 -1.0685,-1.2366 -0.5421,0 -0.7171,0.3458 -1.0934,1.0652 l 0,1.618 c -1.064,1.0653 -1.4124,2.8546 -0.6907,4.295 m 4.6429,-8.5915 c 1.0686,0 1.2389,-1.2413 1.414,-2.1305 0.3763,-3.9508 0.7185,-7.8676 0.5482,-11.9881 -0.5482,-0.5172 -1.4434,-0.7226 -2.1341,-0.5172 -1.4403,0.3427 -1.0995,2.132 -1.2745,3.3687 0,3.5709 0,6.9782 0.5544,10.3716 0.175,0.3458 0.3422,0.8955 0.892,0.8955"
             id="path1416"
             style="fill:#000000;fill-opacity:1;fill-rule:nonzero;stroke:none" />
          <path
             d="m 283.0812,791.1846 c 1.2745,-1.4451 3.5821,-0.7226 5.2004,-0.7226 1.7903,0.3427 4.1257,0.7226 5.0162,1.9577 -0.3763,1.6133 -1.9544,1.6133 -3.0602,1.9637 -2.6838,0.5466 -5.5396,0.3767 -8.2234,0.8908 -0.5111,0.2069 -0.8936,0.8924 -1.0624,1.4405 0,1.4497 0.5513,2.6801 1.784,3.4057 3.5837,1.9577 9.1186,2.5088 13.0429,0.8908 0.3795,-0.3813 0,-0.7194 0,-1.0652 -0.6906,-0.721 -1.7561,-0.721 -2.8572,-0.8924 -3.0292,-0.3736 -6.4348,-0.2037 -9.2859,-1.4404 0,-0.3443 0.7201,-0.3443 1.0624,-0.5512 3.4086,-1.0621 8.2235,0.5512 10.5589,-3.029 0.5218,-1.4404 0.35,-3.571 -0.3717,-4.6347 -1.9637,-2.1614 -5.1602,-2.5103 -8.0144,-2.1614 -2.1728,0.5465 -4.2991,1.6149 -5.0254,3.7794 -0.1719,0.8877 0.1688,1.5763 0.7263,2.1274 1.5812,1.2397 3.7478,0.8893 5.8772,0.7241 1.1027,-0.1714 2.5119,-0.7241 3.0664,-1.0668 0,-0.545 0,-1.2706 -2.512,-1.6164 -1.6152,-0.1683 -3.9274,1.9591 -5.7161,0.8969 -0.3748,-0.1775 -0.3748,-0.7255 -0.206,-0.8969"
             id="path1418"
             style="fill:#000000;fill-opacity:1;fill-rule:nonzero;stroke:none" />
          <path
             d="m 300.0113,800.6299 c 2.6838,-2.5026 4.1257,-5.6999 6.0878,-8.3739 0.5157,0 0.175,0.5064 0.3438,0.6839 0,3.7779 -1.4108,6.8008 -1.9621,10.2034 0,0.3427 -0.1657,0.8892 0.178,1.0637 1.0609,-0.1745 1.6153,-1.2351 2.162,-1.7893 2.1356,-3.0229 3.023,-6.7976 2.6885,-10.7159 -0.3825,-1.2398 -0.9044,-2.85 -2.3462,-3.4043 -0.3423,-0.3396 -1.064,-0.5141 -1.4434,-0.1729 -2.6823,2.1398 -3.5743,5.3634 -5.3662,8.042 l -0.1719,-0.5465 -0.5126,-7.4955 c -0.2106,-0.5465 -0.5513,-1.0652 -0.8951,-1.0652 -0.7232,0 -1.2746,0.5187 -1.6153,1.0652 -0.7263,1.6149 -0.1734,3.7516 -0.1734,5.5332 0.3422,2.3374 0.6876,4.4695 1.7887,6.4287 0.1688,0.5434 0.6845,0.8892 1.2374,0.5434"
             id="path1420"
             style="fill:#000000;fill-opacity:1;fill-rule:nonzero;stroke:none" />
          <path
             d="m 312.2551,796.3395 c 0.8951,0 0.8951,1.0946 1.2358,1.6118 l 0.3825,1.0652 c -1.0639,0.3783 -2.3369,0.5528 -2.6776,1.9947 0,0.3459 0.7139,0.1745 0.8889,0.3459 3.0246,0.3458 6.0925,1.0622 9.114,0.8923 1.0686,-0.5465 2.1371,-1.445 1.9606,-2.6801 -0.892,-0.7194 -2.3013,-0.5528 -3.5805,-0.7194 l -2.8496,0 -0.7232,-2.1291 0.1672,0 c 1.4512,0 3.0664,0.1699 4.3038,-0.3813 0.381,-0.3412 0.1719,-1.0668 0.1719,-1.5794 -0.683,-0.724 -1.9575,-0.5526 -3.0245,-0.5526 -0.8952,-0.1714 -2.5151,0.3488 -2.8574,-0.894 l -0.5482,-2.1305 0,-0.2053 c 2.1651,0.2053 4.296,1.1023 6.4301,0.7225 0.3794,-0.5172 0.7201,-1.2382 0.5498,-1.7908 -2.337,-1.7848 -5.0255,-3.5679 -8.2219,-3.0168 -1.273,0.5173 -2.1666,1.9561 -2.3401,3.3965 -0.1641,1.9638 1.7887,3.3687 0.8998,5.3634 -0.1765,0.5141 0.5482,0.5141 0.7186,0.687"
             id="path1422"
             style="fill:#000000;fill-opacity:1;fill-rule:nonzero;stroke:none" />
        </g>
      </g>
      <g
         transform="matrix(1.0821117,0,0,-1.0821117,60.418487,1397.6909)"
         id="g1424"
         style="fill:#000000">
        <g
           clip-path="url(#clipPath1396)"
           id="g1426"
           style="fill:#000000">
          <path
             d="m 331.8597,794.2075 c -0.8951,-1.4451 -1.7871,-2.8515 -2.5088,-4.1222 1.6137,0 3.0246,0.7194 4.2991,1.7909 1.414,1.2691 2.1356,3.0553 1.9622,5.0098 -0.1735,0.176 -0.1735,0.897 -0.7201,0.7287 -1.2421,-1.1022 -2.1372,-2.3374 -3.0324,-3.4072 l -2.8851,1.9591 c 1.6106,1.7847 3.229,3.2282 5.188,4.2935 0.7295,0.1698 1.4496,0 1.9653,-0.5481 1.273,-1.6134 1.9947,-3.5725 1.4418,-5.7045 -0.8951,-3.7455 -4.4664,-7.1451 -8.0485,-7.866 l -2.1309,-0.1714 c -1.2731,-3.9538 -2.5166,-8.045 -3.2352,-12.337 -1.0593,-0.1714 -2.337,1.0653 -2.8527,2.1305 -0.3794,0.8924 0,1.9885 0,2.884 0.7202,3.3687 1.4078,6.9443 2.8527,10.0042 -0.1719,0.7179 -0.5544,1.2335 -0.7171,1.9529 -0.5187,3.9215 1.4357,7.1466 3.9523,9.9997 0.3438,0.3829 0.8967,1.2737 1.4093,1.0668 0.3794,-3.1958 -2.8542,-5.3587 -3.1918,-8.5577 0,-0.5511 0,-0.8923 0.1657,-1.269 1.0608,1.269 2.134,2.887 3.2011,4.1221 l 2.8851,-1.9591"
             id="path1428"
             style="fill:#000000;fill-opacity:1;fill-rule:nonzero;stroke:none" />
          <path
             d="m 182.5708,792.6697 c 0,0.005 -0.003,0.009 -0.006,0.0108 0,0 -0.4073,0.7133 -0.4166,0.7226 -0.0945,0.142 -0.175,0.2933 -0.2524,0.4461 -0.0836,0.1591 -0.1719,0.3212 -0.2819,0.4725 0.4786,0.707 0.8286,1.354 0.9679,2.183 0,0.009 0.003,0.0186 0,0.0324 -0.003,0.0463 -0.0108,0.0895 -0.0201,0.1343 2.196,1.6875 5.0859,3.2051 9.4578,3.5787 0.923,-2.9966 -0.0388,-6.8871 -1.0779,-8.6888 -0.7635,-1.317 -1.4852,-2.5412 -2.0814,-3.9307 -1.8383,0.4555 -3.7153,0.8553 -5.6264,1.0467 0.1719,1.1965 -0.048,2.5752 -0.6628,3.9924 m 21.7759,16.0763 c 6.2566,1.5268 7.604,5.7863 7.0604,8.8494 2.9192,2.8685 1.6973,7.2159 -1.7361,7.1342 -2.2285,-0.0464 -2.6544,-3.5262 -2.7891,-4.3244 -0.1735,-0.0324 -0.3841,-0.0679 -0.5653,-0.1096 0.206,5.1997 -4.6863,10.8116 -12.3708,11.3088 6.3434,4.8523 0.3004,14.3857 -8.1692,11.0277 -8.239,-3.2652 -7.3315,-12.0266 -0.0806,-13.7558 -2.0504,-1.7677 -3.7571,-4.2023 -4.248,-6.8068 -4.1288,9.0979 -16.2719,4.5976 -13.1792,-4.874 3.0122,-9.2322 11.1551,-7.5942 13.8235,-1.9298 0.8068,-2.5304 2.8805,-5.4221 5.4745,-7.3272 0,0 0.9958,-0.8043 2.6235,-1.5577 0.127,-0.0618 1.1568,-0.4122 1.2962,-0.474 -8.5022,-1.4373 -10.6409,-4.0619 -13.046,-5.7432 -0.0217,0 -0.0372,0 -0.0387,0 -1.1739,0.1575 -2.529,-0.091 -3.4644,-0.619 -3.5062,0.2531 -6.6175,-2.5984 -8.0252,-5.368 -1.2188,-2.393 -1.2281,-4.6733 -0.0295,-6.0998 0.014,-0.1791 0.0806,-0.7565 0.1255,-0.9032 l 0.1223,-0.4724 c 0.006,-0.0108 0.0109,-0.0185 0.0155,-0.0278 0,0.003 -0.003,0.003 -0.003,0.008 0.002,-0.005 0.009,-0.0309 0.0186,-0.0525 0.2447,-0.6084 0.6923,-1.5378 1.3086,-2.0704 -1.4619,-0.9433 -2.9254,-2.0888 -4.3301,-3.503 -0.2865,-0.281 -1.9699,-1.8989 -2.5475,-2.4269 -2.8387,-2.6169 -5.9144,-5.4344 -9.5925,-5.7216 3.9507,-0.6299 7.9679,3.7161 11.5268,6.8069 1.8429,1.831 3.7261,3.2699 5.5551,4.3923 0.1796,-1.7832 1.4805,-3.0553 3.4411,-3.3301 2.3137,-0.3274 5.3336,0.8429 6.5385,4.1761 1.6447,0.1605 2.8914,0.8646 3.6007,2.0518 0.1765,0.3011 0.3221,0.6299 0.4243,0.9819 1.7113,-0.173 4.5035,-0.7843 5.4219,-1.2382 -0.9261,-2.9318 0.1456,-5.0638 0.9184,-7.6992 l -2.45,-1.2783 c -0.9788,1.0868 -2.9673,1.0405 -2.9673,1.0405 -6.4022,2.4115 -13.2458,-5.8358 -10.2925,-15.3289 2.1326,-6.8502 16.1713,-7.971 21.0945,-2.7852 3.579,3.7686 1.9699,8.1794 -3.3467,9.2601 -0.4677,0.4215 -1.5982,1.9143 -1.973,2.799 0.3562,0.2455 3.3049,1.6612 3.548,1.9391 1.0547,-0.0834 2.3943,0.2285 3.4876,0.4153 0.9958,-0.7719 7.1177,-6.8285 8.4419,-8.4526 -0.0527,-0.63 -0.005,-1.3725 0.2292,-2.1506 0.2477,-0.8276 0.7387,-1.706 1.544,-2.3652 0.0821,-0.0664 0.1688,-0.1312 0.2571,-0.1961 -0.1022,-0.9587 -0.062,-2.2973 0.6984,-3.5617 0.4027,-0.6639 1.0175,-1.269 1.767,-1.6658 0.7465,-0.3998 1.5952,-0.6176 2.4423,-0.6901 1.6942,-0.1405 3.3746,0.2686 4.7482,0.863 0.0248,0.009 0.045,0.0216 0.0682,0.0278 0.0588,0.0247 0.1161,0.0478 0.1734,0.0725 2.5073,1.0221 5.0828,3.2869 6.7909,5.6243 1.7082,2.3359 2.9069,5.1643 3.229,8.1331 0.1503,1.4759 0.0697,2.992 -0.3221,4.4293 -0.3856,1.4374 -1.0639,2.7867 -1.9529,3.9446 -0.8904,1.1548 -1.9946,2.1321 -3.2506,2.8083 -1.2498,0.6685 -2.6978,1.0529 -4.0792,0.7595 -0.8177,-0.176 -1.5425,-0.5635 -2.1434,-1.0745 -0.1533,-0.1158 -0.3035,-0.2485 -0.446,-0.389 -0.8951,-0.8615 -1.5409,-2.1182 -1.8739,-3.4151 -0.494,-2.4717 -1.1832,-5.2475 -1.5069,-6.8084 -0.2849,0.2193 -0.5916,0.3999 -0.9059,0.5296 -0.6598,0.2763 -1.335,0.3196 -1.9065,0.2176 -2.4453,2.5335 -5.0873,5.0593 -5.3382,5.3001 0.7124,0.3227 1.9466,0.9294 1.8398,1.6087 -0.158,1.0282 -0.412,4.0017 -0.0418,5.5363 0.9431,2.1676 2.0411,5.5718 1.6834,8.3816 l 0.1564,0.009 c 0.3655,-0.1683 0.7449,-0.1853 1.3133,-0.1914 l 0.5033,-0.0186 c 1.0221,-0.8923 2.3122,-1.2134 3.6425,-0.8985 1.3473,0.3226 2.5135,1.2675 3.0029,2.4254 1.1676,0.0648 2.5568,0.948 2.8449,2.2 1.6989,1.0683 1.8646,3.1217 1.4898,4.559 -0.003,0.009 -0.0325,0.1868 -0.1193,0.4601 1.0485,2.0224 0.6474,3.5647 -0.3345,4.7273 -1.304,1.5439 -3.5557,1.3261 -5.5241,1.2984 -0.1518,0 -1.1274,0 -2.4872,0.009 -1.2761,0.806 -2.7427,1.4713 -4.3471,1.4466 0,0 -1.4883,0.0464 -2.6807,-0.8985 l -0.2463,-0.1806 -0.6674,0.0756 1.1274,1.1456"
             id="path1430"
             style="fill:#000000;fill-opacity:1;fill-rule:nonzero;stroke:none" />
        </g>
      </g>
      <path
         d="m 285.61676,576.74933 c 0.83452,1.28641 2.4802,2.03481 4.16949,2.15341 1.68917,0.14532 3.4186,-0.20214 4.87999,-0.74514 0.0235,-0.009 0.0486,-0.0167 0.0703,-0.0267 0.062,-0.0267 0.12401,-0.0484 0.18266,-0.0769 2.58917,-1.0992 5.26382,-3.50669 7.03189,-5.96914 1.76968,-2.46916 3.00307,-5.4295 3.33322,-8.5002 0.15583,-1.52686 0.0721,-3.08392 -0.31338,-4.55569 -0.39551,-1.46854 -1.07259,-2.85018 -1.97582,-4.04299 -0.90498,-1.19779 -2.02442,-2.21184 -3.28962,-2.91186 -1.25698,-0.69666 -2.69479,-1.08428 -4.02373,-0.81861 -0.82619,0.15539 -1.56862,0.5496 -2.18532,1.07247 -0.11892,0.11536 -0.23125,0.22898 -0.34184,0.35429 -0.82122,0.91373 -1.40274,2.18175 -1.74956,3.50658 -0.51952,2.62954 -1.98925,7.44428 -1.94402,7.48281 0.36371,0.33404 0.68877,0.73497 0.95854,1.18275 1.19162,1.87616 1.28706,4.66443 -0.005,6.8028 -0.62838,1.05744 -1.68593,1.93958 -2.9243,2.17688 -0.92511,0.19035 -1.85853,0.0117 -2.63776,-0.38599 -0.0671,-0.0384 -0.006,2.17353 0.76419,3.3012"
         id="path1436"
         style="fill:#ffffff;fill-opacity:1;fill-rule:nonzero;stroke:none" />
      <path
         d="m 282.82978,570.28566 c 0.29996,0.82858 0.83128,1.66732 1.63398,2.26367 0.78433,0.60479 1.87022,0.8921 2.89076,0.65663 1.02736,-0.22227 1.91383,-0.96741 2.47523,-1.90116 1.14627,-1.9029 1.14801,-4.4306 0.13244,-6.18806 -0.49105,-0.88376 -1.20331,-1.5854 -1.98589,-1.96305 -0.56811,-0.28395 -1.16976,-0.38091 -1.70941,-0.34747 0.66204,0.79362 1.10776,1.39159 1.277,1.63062 -0.007,-0.2624 -0.0151,-0.42439 -0.0117,-0.42439 0.006,0 0.21447,0.58802 0.36196,1.51689 0.13408,0.92056 0.26144,2.21022 -0.19608,3.46991 -0.24802,0.63325 -0.66365,1.15104 -1.16976,1.55034 -0.51779,0.3809 -1.16803,0.51454 -1.65574,0.41596 -0.86633,-0.1687 -1.32223,-0.56464 -1.42276,-0.64147 -0.0184,-0.009 -0.0251,-0.01 -0.0251,-0.01 0.005,-0.0234 0.19943,0.0802 0.53293,0.17714 0.0921,0.0234 -1.17484,-1.78419 -1.49991,-2.14172 0.0184,0.593 0.12239,1.25796 0.37203,1.93623"
         id="path1438"
         style="fill:#ffffff;fill-opacity:1;fill-rule:nonzero;stroke:none" />
      <path
         d="m 251.50838,537.01505 c -1.47643,-1.28132 -0.89318,-2.80159 0.79438,-4.19664 0.1977,-0.16199 0.38036,-0.3057 0.59657,-0.48111 -0.0368,0 -0.0721,-8.7e-4 -0.10053,-0.005 -2.9243,-0.18212 -5.46326,2.54599 -4.11755,5.21729 1.62555,3.21603 7.78763,2.15351 8.65571,-1.40663 -1.8015,1.90451 -4.25497,2.23369 -5.82858,0.87207"
         id="path1440"
         style="fill:#ffffff;fill-opacity:1;fill-rule:nonzero;stroke:none" />
      <path
         d="m 288.68682,513.521 c -1.65065,1.44852 -5.05768,0.66832 -4.399,-3.06887 -1.65909,0.17866 -3.43214,1.35654 -4.66553,2.44406 0.38037,-0.84199 0.99208,-1.27299 1.32223,-1.55532 -0.16426,-0.2623 -0.3888,-1.85106 -0.34865,-2.02983 0.003,-0.0134 -0.71387,-3.17253 0.0302,-3.48331 0.68715,-0.28395 1.91545,0.87045 1.95408,4.55082 0.17087,-0.0719 0.46921,-0.18212 0.72556,-0.24391 0.12573,-5.27411 -4.49963,-8.77409 -4.61359,-8.80915 -0.37873,-0.12541 0.0201,1.72067 -0.0804,2.05818 -0.10723,-0.33751 -1.21499,-2.02312 -1.92723,-2.74315 -1.35232,-1.3666 -4.61694,-2.99886 -6.74189,-1.33825 -3.03326,2.36906 -0.28654,12.09866 1.38759,14.2355 -0.009,0.0234 0,0.0384 -0.0151,0.0467 -2.37805,-1.24465 -5.56379,-1.81762 -8.31722,-0.30581 -5.43134,2.98382 -1.53844,10.14913 5.04935,11.69785 -0.23969,-0.63823 -1.25351,-1.82433 -1.21337,-1.82433 0.65868,0.3809 1.2586,1.11425 1.88872,1.86934 1.09931,1.30481 2.29083,2.68808 4.06387,2.46094 2.95622,-0.36424 4.74095,-2.28206 6.42179,-3.97946 0.0252,0.0835 -0.0402,0.38426 -0.0654,0.42105 0.24304,-0.19056 0.63011,-0.51963 0.93181,-0.80866 0.16761,-0.1621 0.30839,-0.30905 0.39216,-0.41261 -0.48933,0.0802 -1.00551,0.15204 -1.5049,0.18201 -0.11232,0.12033 -0.22789,0.22897 -0.34022,0.34086 -3.55614,3.61187 -6.89944,4.30356 -8.64564,2.13003 -0.11059,-0.14034 -0.21284,-0.2873 -0.30505,-0.43436 -1.1848,-1.87107 -0.82619,-4.12143 -1.45457,-6.13957 -0.33849,-0.87035 -0.54462,-1.79252 -1.12951,-2.59772 -0.85465,0.2689 -1.41107,0.71333 -2.09821,1.23956 0.93181,-2.22201 4.1947,-2.44914 4.86333,-1.49354 -0.42062,-0.13374 -1.30211,-0.0936 -1.90549,0.0151 -0.15073,0.0301 0.72902,1.79251 1.42114,2.49415 3.42045,3.4699 8.73449,4.5308 13.03469,3.24277 5.13472,-1.53703 6.78549,-6.28155 6.28436,-8.16107"
         id="path1442"
         style="fill:#ffffff;fill-opacity:1;fill-rule:nonzero;stroke:none" />
      <path
         d="m 282.23657,510.53232 c -0.0436,-1.53206 -0.53294,-4.38883 -1.33901,-4.35539 -0.45751,0.0184 -0.0436,2.16346 0.047,2.9203 0.78595,-0.56963 0.89481,0.98732 0.91493,1.63052 0.0705,-0.0535 0.28157,-0.17043 0.37711,-0.19543"
         id="path1444"
         style="fill:#ffffff;fill-opacity:1;fill-rule:nonzero;stroke:none" />
      <path
         d="m 272.34574,524.28986 c -0.21112,-0.64819 -1.39257,-3.1825 -3.2629,-3.52325 0.0252,1.52026 0.35364,3.01714 1.09943,4.05619 0.37539,0.5246 0.84632,0.93223 1.45122,1.17452 0.77263,0.31068 2.50206,0.14695 3.92818,-0.84708 -0.1542,-0.47277 -0.3821,-0.87531 -0.6418,-1.22452 -0.97196,-1.2731 -2.46689,-1.69405 -2.97127,-1.42838 0.20106,0.36921 0.48436,1.37991 0.39714,1.79252"
         id="path1446"
         style="fill:#e11c2a;fill-opacity:1;fill-rule:nonzero;stroke:none" />
      <path
         d="m 296.51297,535.34947 c 0.97034,-0.57309 1.31217,-2.12332 0.97704,-3.70039 -0.44247,-2.08501 -2.06131,-4.21505 -4.94709,-4.19167 1.17312,1.43174 2.20881,2.86511 2.92938,4.23669 0.66864,1.27808 1.06589,2.50769 1.04067,3.65537"
         id="path1448"
         style="fill:#ffffff;fill-opacity:1;fill-rule:nonzero;stroke:none" />
      <path
         d="m 285.786,539.50262 c -1.07086,-1.61213 0.15756,-6.06102 0.31338,-5.96753 -0.062,2.39245 -0.53791,4.35377 0.003,5.47809 1.32224,2.72475 5.55535,1.92615 6.71007,-0.51628 -0.20278,0.01 -0.86645,-0.0685 -1.24855,-0.20213 -0.21284,0.2373 -0.61842,0.60814 -0.80108,0.97898 -0.0921,-0.58975 0.796,-1.85268 1.41443,-1.70238 -0.13407,0.0618 -0.38371,0.36089 -0.43566,0.46282 3.2142,0.40428 6.04305,-1.50857 2.97116,-6.65077 -0.35688,-0.59137 -0.78259,-1.22462 -1.30373,-1.90625 -0.36035,-0.25732 -2.01609,-0.9305 -2.66794,-1.00398 0.53964,-0.15041 1.54677,-0.0267 2.05124,0.24391 -0.19272,-0.2807 -0.40557,-0.52623 -0.63855,-0.77014 -1.01557,-0.66496 -3.48905,-1.18957 -3.99018,-1.25471 0.75413,-0.25559 2.63787,-0.0166 3.2445,0.42765 -1.09435,-1.49353 -3.76056,-1.92118 -3.73047,-1.94282 0.58152,-0.18223 0.93007,-0.16047 1.41106,0.003 -0.53629,-0.34909 -1.06577,-0.65824 -1.58366,-0.92715 -2.09476,-1.07757 -4.07567,-1.40004 -6.00616,-0.0283 -0.65197,0.45763 -1.29885,1.10755 -1.94402,1.9913 -3.1405,4.30692 -2.47684,10.21925 1.68929,9.96203 -0.14586,-0.86374 0.0871,-2.359 0.39043,-3.80903 0.22454,-1.09434 0.49777,-2.16357 0.68043,-2.91023 0.25809,0.68486 -0.0687,2.10654 -0.31511,3.64357 -0.19943,1.22625 -0.3519,2.53269 -0.11059,3.58688 0.0336,0.14025 0.0754,0.27735 0.12239,0.4059 0.26479,0.74179 0.75748,1.28641 1.29702,1.67565 0.1978,0.13873 0.39551,0.2556 0.59494,0.3558 0.7893,0.3927 1.57025,0.49128 1.88201,0.37593"
         id="path1450"
         style="fill:#ffffff;fill-opacity:1;fill-rule:nonzero;stroke:none" />
      <path
         d="m 283.46498,539.49428 c -0.73746,-0.42765 -1.34236,-1.08589 -1.75465,-1.85441 -0.14078,-0.26566 -0.26143,-0.55296 -0.35698,-0.84535 -0.5245,0.11698 -1.23004,-0.0234 -1.83504,-0.24391 -0.39877,0.58477 -1.12108,0.65825 -1.60543,1.49364 -0.38209,0.65987 -0.33686,1.2295 -0.0302,1.67057 0.90498,1.30146 4.08411,1.53692 5.5823,-0.22054"
         id="path1452"
         style="fill:#ffffff;fill-opacity:1;fill-rule:nonzero;stroke:none" />
      <path
         d="m 281.09861,541.2802 c -1.42102,1.44342 -1.83666,5.8038 -0.26976,5.86558 1.33229,0.0534 2.4249,-4.43222 1.81989,-5.88734 -0.0838,-0.1253 -0.16751,-0.24217 -0.33675,-0.32733 -0.047,0.0234 -0.0989,0.0416 -0.14414,0.0601 -0.0118,0.007 -0.0268,0.0117 -0.0385,0.0167 -0.0353,0.009 -0.0721,0.0268 -0.10897,0.0385 -0.0134,0.007 -0.0251,0.0133 -0.0403,0.0167 -0.0385,0.0133 -0.0788,0.0283 -0.11222,0.0384 -0.01,8.7e-4 -0.0168,0.007 -0.0286,0.009 -0.0486,0.0151 -0.0972,0.0318 -0.14575,0.0467 -0.0486,0.01 -0.0956,0.0251 -0.14241,0.0334 -0.007,0.003 -0.0185,0.005 -0.0251,0.007 -0.0403,0.01 -0.0805,0.0184 -0.11742,0.0283 -0.01,0.002 -0.0184,0.006 -0.0251,0.006 -0.0956,0.02 -0.19272,0.0384 -0.28493,0.0485"
         id="path1454"
         style="fill:#ffffff;fill-opacity:1;fill-rule:nonzero;stroke:none" />
      <path
         d="m 272.4731,558.57624 c -0.36023,-0.33416 -0.72901,-0.68 -1.111,-1.01415 -1.66753,0.57644 -2.62272,0.7235 -3.98011,0.93732 0.79935,0.41261 3.71196,0.53456 5.09111,0.0769"
         id="path1456"
         style="fill:#e11c2a;fill-opacity:1;fill-rule:nonzero;stroke:none" />
      <path
         d="m 262.54885,562.39859 c -3.67183,0.0234 -4.24827,-4.73284 -2.49698,-5.24576 0.43068,-0.12369 1.61213,-0.53456 2.16682,-0.87706 -5.53359,-3.61522 -9.73998,5.68683 -1.93731,8.13933 0.91503,-0.31576 2.20546,-0.42441 3.21928,-0.49789 0.80272,-0.55469 1.37926,-1.34819 1.63898,-2.27535 -0.71723,0.37247 -1.63898,0.75174 -2.5908,0.75672"
         id="path1458"
         style="fill:#ffffff;fill-opacity:1;fill-rule:nonzero;stroke:none" />
      <path
         d="m 265.38939,562.46708 c -0.23461,0.52288 -0.73573,1.17118 -1.2268,1.47849 0.29835,-0.02 1.02227,0.12866 1.36422,0.28568 -2.38638,-0.11525 -5.58726,0.41272 -7.16423,1.05917 0.29834,-0.22379 0.86807,-0.52287 1.2032,-0.64819 -4.58837,-1.13264 -5.96092,-7.6699 -1.16468,-9.49585 -0.44571,-0.14706 -1.05408,-0.18212 -1.63723,-0.12358 -6.48888,0.65154 -10.17239,9.2803 -7.662,16.54592 2.75008,7.94217 22.78138,7.85862 23.56396,-1.49353 0.29833,-3.57021 -4.23485,-4.89493 -6.46876,-5.63835 0.22962,-0.006 0.50946,-0.009 0.73746,0.0267 -0.62178,-0.57633 -1.13459,-1.32645 -1.54515,-1.99639"
         id="path1460"
         style="fill:#ffffff;fill-opacity:1;fill-rule:nonzero;stroke:none" />
      <path
         d="m 268.76958,538.36164 c 0.0166,-0.0936 0.19273,-1.27473 0.19273,-1.27473 1.50824,1.86112 6.86415,2.20859 8.20478,2.21021 0,0 -0.0133,0.93225 0.98548,1.5036 0.009,0 0.0134,0.009 0.0201,0.009 0.0301,0.0134 1.01383,0.57806 2.3998,0.52795 -1.34409,1.78084 -1.55186,5.6667 -0.12077,6.13959 1.96415,0.63984 3.05513,-4.13984 2.65292,-6.0845 -0.0989,-0.30234 -0.24629,-0.51119 -0.4005,-0.64981 0.29152,-0.15377 0.57818,-0.34585 0.87305,-0.57807 0,0 0.41564,4.68782 -2.87907,11.29011 0.3888,-0.21881 0.64181,-0.60307 0.85639,-0.96395 -0.14078,0.89718 0.0151,4.09136 0.16426,4.64432 0.11059,0.40438 -1.13124,1.05754 -1.88201,1.26639 -1.14465,-0.91222 -2.33779,-1.82595 -3.33994,-2.6463 1.01557,-0.53965 2.53886,-1.46183 2.86901,-1.99141 -0.0721,-0.0283 -2.35457,1.14607 -3.43213,1.64221 -0.34346,-0.24055 -0.65696,-0.44269 -0.93343,-0.65489 -0.31501,-0.73508 -0.96524,-1.3732 -1.79815,-1.72564 0.4072,0.20202 0.98039,0.99056 1.10267,1.27959 -0.92336,-0.57806 -1.77639,-1.13437 -2.78687,-1.53194 0.6167,0.39594 3.45389,2.53777 4.93368,3.75558 -1.71948,-0.0719 -3.43387,2.87344 -9.3764,3.57518 -0.49604,-1.31823 -2.16682,-6.99996 -2.35446,-7.86532 -0.92347,-4.30692 3.37003,-8.27296 4.04883,-11.87651"
         id="path1462"
         style="fill:#e11c2a;fill-opacity:1;fill-rule:nonzero;stroke:none" />
      <path
         d="m 243.26832,548.36533 c 0.0788,0.0702 0.16091,0.14035 0.24467,0.20051 -0.0184,-0.0902 -0.0302,-0.19554 -0.0369,-0.32409 -0.0452,-0.80866 0.12239,-2.30219 0.37711,-2.74326 0.12737,0.33924 0.047,1.39332 0.062,2.48095 8.7e-4,0.29401 0.0168,0.5864 0.0385,0.87371 0.0436,0.52125 0.12736,1.00906 0.29325,1.38499 1.08091,2.30381 6.77715,3.5267 9.38807,-2.00645 -0.33513,-0.025 -1.25352,1.33987 -1.52502,1.6606 -0.0168,-0.01 -0.0351,-0.01 -0.0351,-0.0267 0.14078,-0.68324 1.63225,-2.80493 2.57402,-2.815 -0.23622,0.17876 -0.49604,0.48944 -0.63509,0.71333 1.84175,-0.21047 3.21929,-1.25795 3.78404,-2.81003 0.0871,-0.24045 0.15918,-0.4995 0.20614,-0.76343 0.27821,-1.57869 -0.1844,-3.5517 -1.66753,-5.65511 -3.52931,2.82842 -8.25684,1.08265 -8.53332,-2.05645 -0.0654,-0.77024 0.1358,-2.32059 1.35577,-3.32631 -1.882,-0.0183 -4.28679,1.20451 -5.99283,3.24937 -1.56019,1.97302 -3.27459,5.13722 -2.06965,7.63982 -0.0988,-1.92962 0.47926,-2.36063 0.47926,-2.36896 -0.34183,2.24203 -0.0905,5.15723 1.69264,6.69253"
         id="path1464"
         style="fill:#ffffff;fill-opacity:1;fill-rule:nonzero;stroke:none" />
      <path
         d="m 266.57917,565.01654 c -0.71052,0.0568 -6.34302,-0.2556 -12.29052,3.10728 4.40906,-4.0445 12.51007,-3.12741 12.29052,-3.10728"
         id="path1466"
         style="fill:#231f20;fill-opacity:1;fill-rule:nonzero;stroke:none" />
      <path
         d="m 247.07918,537.20053 c -0.92509,0.1437 -2.90925,1.20287 -3.3198,1.54699 -0.20452,0.17043 -0.32182,0.0285 -0.22465,-0.16708 0.34866,-0.65317 2.69478,-1.68398 3.54445,-1.37991"
         id="path1468"
         style="fill:#231f20;fill-opacity:1;fill-rule:nonzero;stroke:none" />
      <path
         d="m 248.04443,538.79264 c -1.09261,0.79687 -2.67465,2.50931 -3.43376,3.63027 -0.53455,-0.58975 3.04496,-4.28354 3.43376,-3.63027"
         id="path1470"
         style="fill:#231f20;fill-opacity:1;fill-rule:nonzero;stroke:none" />
      <path
         d="m 249.12038,540.37479 c -0.51617,0.88863 -1.26196,2.48746 -1.5971,3.50821 -0.59991,-0.41434 0.99036,-3.44317 1.5971,-3.50821"
         id="path1472"
         style="fill:#231f20;fill-opacity:1;fill-rule:nonzero;stroke:none" />
      <path
         d="m 274.37686,549.31932 c 2.72487,0.55123 3.73545,-5.07381 2.99637,-7.28229 -0.66863,-1.385 -2.11986,-0.86039 -2.11986,-0.86039 -2.9244,1.07583 -3.29643,7.64641 -0.87651,8.14268"
         id="path1474"
         style="fill:#231f20;fill-opacity:1;fill-rule:nonzero;stroke:none" />
      <path
         d="m 291.65646,558.79342 0,0 c 0.003,0.009 0.0117,0.045 0.0268,0.0901 0.0435,0.13202 0.14739,0.43447 0.30667,0.85043 0.37701,1.02076 1.06415,2.71307 1.93385,4.28852 0.65868,1.24118 1.40945,2.44244 2.05125,3.29947 0.63682,0.86374 1.13957,1.40165 1.12788,1.41334 0,0 -0.6168,-0.40428 -1.3943,-1.18112 -0.43577,-0.4244 -0.91005,-0.96233 -1.36422,-1.58378 -0.36532,-0.50459 -0.7222,-1.05084 -1.02216,-1.6289 -0.88658,-1.60716 -1.33565,-3.37457 -1.53682,-4.47227 -0.11892,-0.65986 -0.14911,-1.07918 -0.12898,-1.07583"
         id="path1476"
         style="fill:#231f20;fill-opacity:1;fill-rule:nonzero;stroke:none" />
      <path
         d="m 269.04097,531.57214 c 0.44918,0.16372 1.27029,0.12033 1.88201,-0.0367 -0.58153,-0.097 -1.39095,-0.007 -1.88201,0.0367"
         id="path1478"
         style="fill:#ffffff;fill-opacity:1;fill-rule:nonzero;stroke:none" />
      <path
         d="m 292.28819,526.53523 c 0.0385,-0.005 0.15756,0.025 0.19273,0.0301 0.1978,-0.34249 0.35364,-1.07421 0.34357,-1.35989 -0.18601,0.38091 -0.32344,0.89371 -0.5363,1.32981"
         id="path1480"
         style="fill:#ffffff;fill-opacity:1;fill-rule:nonzero;stroke:none" />
      <path
         d="m 274.85451,548.90162 c 1.81989,-0.0635 2.85061,-5.35775 1.88698,-6.97659 -0.18937,-0.21209 -0.37203,-0.39259 -0.95691,-0.42938 -2.80537,0.3743 -3.44555,7.49784 -0.93007,7.40597"
         id="path1482"
         style="fill:#ffffff;fill-opacity:1;fill-rule:nonzero;stroke:none" />
      <path
         d="m 276.32586,503.23164 c -1.81655,0.27561 0.0385,9.15498 1.80658,8.99461 2.64782,-0.2372 0.95518,-9.41058 -1.80658,-8.99461"
         id="path1484"
         style="fill:#231f20;fill-opacity:1;fill-rule:nonzero;stroke:none" />
      <path
         d="m 276.66608,503.59414 c -1.22334,-0.17541 -0.48599,4.01951 -0.18267,5.03031 0.78767,-1.31986 2.60421,2.07321 1.6591,3.33117 2.1903,-0.45936 0.53791,-8.0574 -1.47643,-8.36148"
         id="path1486"
         style="fill:#ffffff;fill-opacity:1;fill-rule:nonzero;stroke:none" />
      <path
         d="m 437.17765,529.42707 -2.33942,0 0,6.13785 2.07971,0 c 2.36301,0 3.86953,-1.06242 3.86953,-3.08229 C 440.78747,530.5397 439.56749,529.42707 437.17765,529.42707 z m 4.98735,15.90109 -5.48165,-7.71665 -1.84512,0 0,7.53616 -2.44167,0 0,-17.87065 4.88335,0 c 3.66338,0 5.95097,1.81254 5.95097,5.07694 0,2.71816 -1.5854,4.32532 -3.92493,4.94678 l 5.32756,7.48442 -2.46851,0.543"
         id="path1488"
         style="fill:#000000;fill-opacity:1;fill-rule:nonzero;stroke:none" />
      <path
         d="m 447.85452,537.48112 5.97434,0 c -0.28319,-1.99466 -1.16814,-3.13401 -2.96119,-3.13401 C 449.4382,534.34711 448.21811,535.38291 447.85452,537.48112 z m 3.32479,7.9255 c -3.2209,0 -5.73974,-1.94294 -5.73974,-6.47536 0,-3.9627 2.33617,-6.39679 5.4532,-6.39679 3.61306,0 5.2755,2.77161 5.2755,6.18968 l 0,0.49279 -8.41774,0 c 0.0771,2.87517 1.45468,4.22175 3.61145,4.22175 1.79316,0 3.09191,-0.70002 4.44271,-1.76092 l 0.33676,2.07159 c -1.32387,1.0358 -2.90927,1.65726 -4.96214,1.65726"
         id="path1490"
         style="fill:#000000;fill-opacity:1;fill-rule:nonzero;stroke:none" />
      <path
         d="m 462.48283,545.40661 c -1.63724,0 -3.4555,-0.56962 -4.52138,-1.16435 l 0.33685,-2.17688 c 1.17139,0.80358 2.67629,1.42503 4.36557,1.42503 1.58529,0 2.52046,-0.59473 2.52046,-1.63215 0,-1.13946 -0.70056,-1.55369 -2.93609,-2.09832 -2.90927,-0.72512 -4.07903,-1.6038 -4.07903,-3.80568 0,-1.96966 1.66245,-3.4198 4.36556,-3.4198 1.53347,0 2.90926,0.31078 4.07729,0.82858 l -0.36196,2.17689 c -1.09261,-0.62147 -2.46841,-1.06253 -3.76727,-1.06253 -1.40263,0 -2.13165,0.54462 -2.13165,1.42341 0,0.82856 0.6234,1.29637 2.5724,1.78753 3.06508,0.77685 4.44434,1.65726 4.44434,4.01453 0,2.25371 -1.68929,3.70374 -4.88509,3.70374"
         id="path1492"
         style="fill:#000000;fill-opacity:1;fill-rule:nonzero;stroke:none" />
      <path
         d="m 471.41512,537.48112 5.97423,0 c -0.2848,-1.99466 -1.16803,-3.13401 -2.96282,-3.13401 C 472.9988,534.34711 471.7771,535.38291 471.41512,537.48112 z m 3.3248,7.9255 c -3.22264,0 -5.74137,-1.94294 -5.74137,-6.47536 0,-3.9627 2.3378,-6.39679 5.45482,-6.39679 3.61144,0 5.27551,2.77161 5.27551,6.18968 l 0,0.49279 -8.41774,0 c 0.077,2.87517 1.45295,4.22175 3.60981,4.22175 1.79479,0 3.09192,-0.70002 4.44423,-1.76092 l 0.33687,2.07159 c -1.32387,1.0358 -2.90926,1.65726 -4.96213,1.65726"
         id="path1494"
         style="fill:#000000;fill-opacity:1;fill-rule:nonzero;stroke:none" />
      <path
         d="m 489.23091,538.87953 c -4.57172,0.44107 -5.53197,1.68398 -5.53197,2.95363 0,1.00907 0.67534,1.65726 1.84348,1.65726 1.35231,0 2.64944,-0.67329 3.68849,-1.73571 L 489.23091,538.87953 z m 0.44236,6.26814 -0.2597,-1.65726 c -0.98711,1.00907 -2.3378,1.9162 -4.36557,1.9162 -2.23391,0 -3.63654,-1.34647 -3.63654,-3.44479 0,-3.08229 2.64944,-4.29858 7.81945,-4.84321 l 0,-0.51789 c 0,-1.5536 -0.93343,-2.09822 -2.36291,-2.09822 -1.50662,0 -2.93609,0.46606 -4.28689,1.06242 l -0.31164,-1.99465 c 1.48141,-0.59474 2.88415,-1.0358 4.8063,-1.0358 3.01314,0 4.46783,1.21791 4.46783,3.96269 l 0,8.65051 -1.87033,0"
         id="path1496"
         style="fill:#000000;fill-opacity:1;fill-rule:nonzero;stroke:none" />
      <path
         d="m 496.90957,537.84374 0,7.30393 -2.31269,0 0,-12.35426 1.84348,0 0.39216,2.51267 c 0.88149,-1.39841 2.31096,-2.66806 4.337,-2.77161 l 0.3637,2.20188 c -2.05125,0.10355 -3.79248,1.47513 -4.62365,3.10739"
         id="path1498"
         style="fill:#000000;fill-opacity:1;fill-rule:nonzero;stroke:none" />
      <path
         d="m 508.3187,545.40661 c -3.3249,0 -5.76668,-2.30543 -5.76668,-6.4219 0,-4.22326 2.59762,-6.45025 5.81862,-6.45025 1.81828,0 3.11876,0.46607 4.05381,1.13936 l -0.33849,2.25371 c -1.14129,-0.93224 -2.31268,-1.3733 -3.74053,-1.3733 -2.02604,0 -3.45551,1.5287 -3.45551,4.40376 0,3.00383 1.53174,4.42886 3.71532,4.42886 1.24681,0 2.33943,-0.28567 3.61144,-1.3733 l 0.33687,2.0716 c -1.27203,0.95896 -2.5725,1.32147 -4.23485,1.32147"
         id="path1500"
         style="fill:#000000;fill-opacity:1;fill-rule:nonzero;stroke:none" />
      <path
         d="m 522.68731,545.14767 0,-8.4183 c 0,-1.26801 -0.54636,-2.12332 -1.89705,-2.12332 -1.21998,0 -2.46689,0.80358 -3.58461,1.99467 l 0,8.54695 -2.31268,0 0,-18.33682 2.31268,-0.36251 0,7.97722 c 1.01221,-0.90713 2.44168,-1.8911 4.20963,-1.8911 2.3378,0 3.58472,1.3983 3.58472,3.62692 l 0,8.98629 -2.31269,0"
         id="path1502"
         style="fill:#000000;fill-opacity:1;fill-rule:nonzero;stroke:none" />
    </g>
  </g>
</svg>
