<svg xmlns="http://www.w3.org/2000/svg" viewBox="0 0 275 86.75"><defs><style>.cls-1{fill:#fff;}.cls-2{fill:#de1f2b;}</style></defs><title>Asset 2</title><g id="Layer_2" data-name="Layer 2"><g id="Layer_1-2" data-name="Layer 1"><path d="M182.65,55.34V38.89h5.89c3.91,0,6.18,1.58,6.18,4.94a4.37,4.37,0,0,1-3.65,4.67l3.87,6.85h-3l-3.69-6.49h-2.89v6.49Zm2.73-8.91h3c2.31,0,3.56-.58,3.56-2.53s-1.22-2.47-3.58-2.47h-3Z"/><path d="M196.11,49.45c0-4.49,3.18-6.14,5.62-6.14,2.65,0,5.18,1.58,5.18,6.38v.64h-8.07A2.92,2.92,0,0,0,202,53.41,4.28,4.28,0,0,0,205.31,52l1.45,1.42a6.37,6.37,0,0,1-5,2.13C198.84,55.59,196.11,53.79,196.11,49.45Zm8.29-1.15c-.16-1.8-1-2.76-2.69-2.76-1.33,0-2.56.76-2.82,2.76Z"/><path d="M208.07,53.72l1.49-1.67a5.82,5.82,0,0,0,3.71,1.4c1.47,0,2.36-.38,2.36-1.36s-1.2-1.24-2.62-1.58c-2-.47-4.45-1-4.45-3.74,0-2.07,1.78-3.47,4.38-3.47A6.92,6.92,0,0,1,217.79,45l-1.31,1.78a5.92,5.92,0,0,0-3.33-1.29c-1.51,0-2,.53-2,1.2,0,1,1.18,1.24,2.58,1.56,2,.44,4.49,1,4.49,3.71,0,2.49-2.24,3.65-4.93,3.65A7.47,7.47,0,0,1,208.07,53.72Z"/><path d="M219.48,49.45c0-4.49,3.18-6.14,5.62-6.14,2.65,0,5.18,1.58,5.18,6.38v.64h-8.07a2.92,2.92,0,0,0,3.16,3.07A4.28,4.28,0,0,0,228.68,52l1.45,1.42a6.37,6.37,0,0,1-5,2.13C222.21,55.59,219.48,53.79,219.48,49.45Zm8.29-1.15c-.16-1.8-1-2.76-2.69-2.76-1.33,0-2.56.76-2.82,2.76Z"/><path d="M231.49,52.5c0-2.56,2.18-4.27,7.69-4.89v-.35c0-1.18-.62-1.69-1.93-1.69a6.41,6.41,0,0,0-4,1.6l-1.33-1.71a8.45,8.45,0,0,1,5.69-2.13c3.16,0,4.25,1.51,4.25,4.27v4.87a8.11,8.11,0,0,0,.33,2.89h-2.76a4.27,4.27,0,0,1-.27-1.51,5.68,5.68,0,0,1-4.36,1.69C232.91,55.52,231.49,54.46,231.49,52.5Zm7.69-.44v-2.6c-3.27.44-5,1.25-5,2.54,0,.93.64,1.42,1.64,1.42A4.71,4.71,0,0,0,239.18,52.05Z"/><path d="M244.34,55.34V43.54h2.73v1.93h0a4.62,4.62,0,0,1,4.25-2.16h.18l-.09,2.51c-.13,0-.58,0-.73,0a4,4,0,0,0-3.65,2.09v7.47Z"/><path d="M252.26,49.45c0-4.51,3-6.14,5.67-6.14a4.8,4.8,0,0,1,4.89,3.45l-2.31.82a2.58,2.58,0,0,0-2.62-2c-1.56,0-2.87,1-2.87,3.85,0,2.51,1,3.89,2.82,3.89,1.24,0,2.11-.38,2.76-2l2.27.82a5.19,5.19,0,0,1-5.09,3.47C255,55.59,252.26,53.77,252.26,49.45Z"/><path d="M264.53,55.34V38.89h2.76v6.25a5.85,5.85,0,0,1,4.31-1.82c2.07,0,3.4,1.22,3.4,3.56v8.47h-2.76V47.56c0-1.31-.56-1.91-1.76-1.91a4.79,4.79,0,0,0-3.2,1.53v8.16Z"/><path d="M113.42,35.21s.41-.61.75-1.08a19.31,19.31,0,0,1,2.59-2.74l.56-.47s-.48,0-.75.1a5.75,5.75,0,0,0-2.06,1.16c-.78.66-1.63,1.75-1.24,2.71.06.14.14.32.14.32m4.32,1.15a8.19,8.19,0,0,0,3.45-1c1.05-.59,2.59-1.73,2.43-3.08a1.14,1.14,0,0,0-.69-.92,1.58,1.58,0,0,0-1.31,0,3.94,3.94,0,0,0-1,.44,15.77,15.77,0,0,0-3.84,3.39c-.22.28-.43.6-.6.81s-.19.25-.18.29a5.45,5.45,0,0,0,1.78.09m-3.12,2.29a5.36,5.36,0,0,0-.4.69,1.36,1.36,0,0,1-.3.35.63.63,0,0,1-.9,0,2.2,2.2,0,0,1-.7-1.55,4.69,4.69,0,0,0,0-.74,4.86,4.86,0,0,0-.63-1.07,4.19,4.19,0,0,1-.43-1.56A5.21,5.21,0,0,1,112.87,31a10.84,10.84,0,0,1,3.64-2.49,7.12,7.12,0,0,1,4.67-.43,3.58,3.58,0,0,1,1.45,1,1,1,0,0,0,.2.23,1.54,1.54,0,0,0,.36.08,3.61,3.61,0,0,1,1.39.66,2.65,2.65,0,0,1,1,1.56,4.3,4.3,0,0,1-1.33,3.61,13.26,13.26,0,0,1-4.79,3.29,7.66,7.66,0,0,1-3,.54c-.29,0-.59-.1-.87-.12a3.76,3.76,0,0,1-.73-.19c-.07-.05-.16-.1-.18-.08m1.68,2.89.22.06a1.94,1.94,0,0,1,1.09,1.53,45.93,45.93,0,0,1,.6,6.33c0,1,.07,2,.11,3a12,12,0,0,1-.07,2.76,1.29,1.29,0,0,1-.53.79,2.4,2.4,0,0,1-1.41.13c-1-.2-1.28-.82-1.41-1.77a47.52,47.52,0,0,1,0-8.61,18.83,18.83,0,0,1,.62-3.45c.11-.28.35-.85.76-.77M86.62,45s-1.42.1-2.41.21a26.32,26.32,0,0,0-4.95,1c-.4.14-1.23.49-1.3.9a1.4,1.4,0,0,0,.49,1.12c.17.2,1.15,1.14,1.42,1.37a24.56,24.56,0,0,0,5.2,3.15c.59.25,1.56.6,1.56.6s-.07-2.78-.06-5.51c0-1.44,0-2.87,0-2.87m26.13,1.1a12,12,0,0,1-.14,2.34,10.74,10.74,0,0,1-.44,1.54,17.12,17.12,0,0,1-.79,1.58,13.12,13.12,0,0,1-2.24,2.75c-2.45,2.12-6.25,3.33-9.51,3.73a24.26,24.26,0,0,1-7.09-.21c-.81-.15-2-.42-2-.42a8,8,0,0,1,0,.82,3.41,3.41,0,0,1-.2.69,1.09,1.09,0,0,1-.86.61A2.55,2.55,0,0,1,88,59.43a2.11,2.11,0,0,1-1.14-1.81c-.11-.64-.21-1.76-.21-1.76l-1-.49a26.46,26.46,0,0,1-4-2.43c-.33-.24-1.74-1.42-2.05-1.72a11.55,11.55,0,0,1-2.26-2.71,2.59,2.59,0,0,1-.25-2.44c.49-1.22,2.24-2.14,3.44-2.67a28.78,28.78,0,0,1,4.75-1.44,13.93,13.93,0,0,0,1.42-.26l.05,0s.07-1.25.06-1.69.32-3.29.43-3.89a7.12,7.12,0,0,1,.56-1.91.5.5,0,0,1,.69-.06c1.3.81,1.7,3.62,1.8,5.05.06.87.09,2.18.09,2.18s1.49,0,2.42,0a21.94,21.94,0,0,1,2.8.31A19.79,19.79,0,0,1,100.4,43a4.92,4.92,0,0,1,2.45,2.48,2.52,2.52,0,0,1-.21,2.35,3.29,3.29,0,0,1-2.54,1.66,4.15,4.15,0,0,1-1.78-.4.31.31,0,0,1,0-.43,10,10,0,0,1,.88-.49,2,2,0,0,0,.41-.29c.26-.23.49-.48.47-.78s-.44-.62-.83-.77A30.3,30.3,0,0,0,92,44.88c-.68,0-1.66-.07-1.66-.07l.21,9.65s.81.15,1.44.26c.36.06,1.9.19,2.31.2a21.28,21.28,0,0,0,9.47-1.55,9.81,9.81,0,0,0,3.28-2.32,6.75,6.75,0,0,0,1.59-5,13.09,13.09,0,0,0-2.78-6C102.85,36.12,97.61,32.88,93,31a41.11,41.11,0,0,0-14.36-3.23,23.91,23.91,0,0,0-5.52.41c-.2.06-.41.13-.6.17a1.54,1.54,0,0,0-.45.19l-.07.07.17.08c.15.06.78.11,1.11.16a1.08,1.08,0,0,1,.72.43.42.42,0,0,1,0,.53c-.32.39-1.53.33-2.07.24s-1.24-.26-1.37-.74A2.26,2.26,0,0,1,71,27.65a4,4,0,0,1,2.65-1.9,27.09,27.09,0,0,1,5.6-.88A32.59,32.59,0,0,1,90.1,26.48a51.91,51.91,0,0,1,6.76,2.63,52.87,52.87,0,0,1,4.92,2.77c.4.26,2.72,2,3.08,2.27.75.62,1.74,1.5,2.45,2.21a22.78,22.78,0,0,1,3.93,5.13c.2.4.36.79.61,1.25a11,11,0,0,1,.53,1.38c.06.27.16.67.17.68a9.84,9.84,0,0,1,.18,1.27m16.07.7.15,0a11.91,11.91,0,0,1,3.12.74,3.21,3.21,0,0,1,1.69,1.59,4.5,4.5,0,0,1-2.17,6.32,8.34,8.34,0,0,1-2.83.77,10.07,10.07,0,0,1-5.35-1,6.43,6.43,0,0,1-2.71-2.31,2.3,2.3,0,0,1,.11-2.47c.84-1.15,2.64-1.4,4-1.35a16.49,16.49,0,0,1,3.87.71,7.51,7.51,0,0,1,1.45.67.48.48,0,0,1,.15.47c-.22.69-1.89,1-2.37,1.12-1.29.2-2-.29-3.42-.87a5.07,5.07,0,0,0-1.22-.33c-.66-.06-1.47.12-1.59.85-.06.37.38.72.71.87a5.36,5.36,0,0,0,2.2.47,11.51,11.51,0,0,0,6.71-1.66,1,1,0,0,0,.51-.78s-.06-.41-.18-.45h-.05s-.11-.13-.17-.21a3,3,0,0,0-.78-.44,19.44,19.44,0,0,0-4.78-.88c-1.26-.11-3.23-.27-3.71-.34A5.61,5.61,0,0,1,120.7,48a1.79,1.79,0,0,1-1-1.1,3.4,3.4,0,0,1,.54-2.59c1.25-1.79,4.17-2.48,6.35-2.75s5.53-.26,7.6.84c.32.17.48.33.42.67a1.67,1.67,0,0,1-1.2,1.24,13.23,13.23,0,0,1-2.44.3c-2.5.14-5.53.07-7.91.72a1.65,1.65,0,0,0-.61.26c-.37.4.69.52.92.57l.15,0,5.27.62m7.81,9.36c-1-.37-1.24-2-1.29-2.83a25.71,25.71,0,0,1,1.45-8.94c.26-.72.63-1.89,1.43-1.82a1.84,1.84,0,0,1,1.25.91c.79,1.11,1.83,2.63,2.52,3.68s1.51,2.37,2.24,3.45a1.56,1.56,0,0,0,.27.34c.13.11.25.11.3,0s0-1.4-.06-1.67c-.06-.43-.08-.78-.13-1.16a32.41,32.41,0,0,0-.75-3.65c-.3-1.16-.67-2.36-.94-3.48a4.73,4.73,0,0,1-.16-1.08.57.57,0,0,1,.85-.59c1,.36,2.39,2.59,2.78,3.37.13.26.67,1.59.79,2a16.39,16.39,0,0,1,.8,3.88,10.85,10.85,0,0,1-.55,4.66,5,5,0,0,1-1,1.48,2.31,2.31,0,0,1-2.46.49c-.85-.48-2.23-2.88-2.47-3.3-.81-1.41-2.19-4.16-2.41-4.47a.39.39,0,0,0-.22-.17c-.08,0-.11.14-.13.26-.14.8-.23,4.55-.24,4.65a19.3,19.3,0,0,1-.24,2.94c-.12.5-.24.91-.7,1.12a1.14,1.14,0,0,1-1-.06m13.93-.24a4.2,4.2,0,0,1-.42-.41,7.86,7.86,0,0,1-.46-.73c-.06-.14-.11-.25-.16-.37a4.53,4.53,0,0,1-.14-2.61,11.59,11.59,0,0,1,.77-2.07.79.79,0,0,0,.05-.19c0-.16-.25-1.24-.26-1.59,0-.53.39-.91,1.08-1l.15,0c.28-.07.45-.6.6-1,.21-.59.54-1.5.54-1.5A13.83,13.83,0,0,1,151,44a1.92,1.92,0,0,1-1.15-.93c-.28-.56-.1-.87.49-1.05.22-.07,1.91-.39,2.44-.47l1.93-.26c.55-.07,3.08-.36,3.89-.34a3.18,3.18,0,0,1,2.74,1.58c.38.56.65,1.22.07,1.57-.9.55-3.8.58-4.33.59-.84,0-2,0-2,0l-.59,2,3.25,0a4,4,0,0,1,.73,0c.6.13.8.59.83,1.25s-.11,1.13-.73,1.23c-.32.05-3.89.07-4.37.13l-.62.08s-.26.67-.48,1.35-.42,1.43-.42,1.43H153a4.15,4.15,0,0,0,.71-.07c1.09-.2,2.71-.44,4-.65.72-.11,1.08-.17,1.45.31a2.06,2.06,0,0,1,.52,1.27c0,.48-.34.79-.79,1.13a13.15,13.15,0,0,1-5.59,2.44,3.6,3.6,0,0,1-1.75-.19,3.08,3.08,0,0,1-.63-.3l-.36-.25M173.12,46a19.28,19.28,0,0,0-2.68,3.16c-.76,1.08-1.47,2.32-2.15,3.28a9,9,0,0,0-.58,1,2.26,2.26,0,0,0,.93,0,7.78,7.78,0,0,0,3-1.4,6.31,6.31,0,0,0,2.17-3.42A3.65,3.65,0,0,0,173.6,46a.34.34,0,0,0-.48-.06m-7.31,11.28s-.29.86-.5,1.53c-.37,1.16-1.18,4.28-1.37,5.24-.28,1.44-1.08,5.2-1.13,5.29a.48.48,0,0,1-.23.23c-.33.2-.46.13-.86-.08a3.83,3.83,0,0,1-1.37-1.07c-.78-1-.6-2.94-.44-4.07a35.36,35.36,0,0,1,2.58-9.6.13.13,0,0,0,0-.14,7.9,7.9,0,0,1-.72-3.17c0-3.08,1.77-6.12,3.75-8.56.15-.19,1.12-1.35,1.57-1.33s.51.54.45,1a13.22,13.22,0,0,1-1.91,4.07,12,12,0,0,0-1.31,3.12,9.78,9.78,0,0,0-.21,1.21c0,.33.09.74.09.74s1.25-1.75,2.08-2.83c.45-.59.77-1,1.15-1.41s1.85-2,2.27-2.35a8.16,8.16,0,0,1,2.24-1.69,2,2,0,0,1,2.18,0,5.09,5.09,0,0,1,1.82,3.73,8.87,8.87,0,0,1-.86,4.72,9.78,9.78,0,0,1-3.5,3.8,9.31,9.31,0,0,1-5.22,1.71l-.53,0"/><path d="M66.51,67.18a12.44,12.44,0,0,0-2.07-4,9.65,9.65,0,0,0-3.39-2.79,6.1,6.1,0,0,0-4.19-.47,5.36,5.36,0,0,0-3.17,2.4,8.3,8.3,0,0,0-.87,1.88,16.74,16.74,0,0,0-.83,3.3c-.25,1.51-.43,3-.7,4l-.1.25a3.9,3.9,0,0,0-.71-.4,3.68,3.68,0,0,0-1.37-.29h-.27a2.58,2.58,0,0,0-.51.06,50.39,50.39,0,0,0-4.43-4.47A7.38,7.38,0,0,0,46,64.79c.39-.41.6-.71.61-.71a.11.11,0,0,0,0-.11c-.15-.35-.27-.68-.37-1A12.49,12.49,0,0,1,46,59.52a11.41,11.41,0,0,0,1.58-3.18A10.21,10.21,0,0,0,48,54.25a13.76,13.76,0,0,0,.14-3.6,4.88,4.88,0,0,0,1,.12,3,3,0,0,0,.4.35,3.62,3.62,0,0,0,2.3.65A4,4,0,0,0,54,51.11,3.8,3.8,0,0,0,55.52,49a2.4,2.4,0,0,0,2.78-2.09l.29-.25a3.5,3.5,0,0,0,.33-.38,3.08,3.08,0,0,0,.5-.86,4.46,4.46,0,0,0,.12-2.73.1.1,0,0,0,0,0,7.82,7.82,0,0,0,.62-2c0-.13.05-.28.08-.42a4.51,4.51,0,0,0-.33-2.56,3.41,3.41,0,0,0-2.34-1.84,20.94,20.94,0,0,0-5.43-.11l-.56,0c-.48,0-.94,0-1.4,0A9,9,0,0,0,48.32,35a4.76,4.76,0,0,0-3.53.62,5.58,5.58,0,0,0-.56.33,13.3,13.3,0,0,1-1.51-.13,6.76,6.76,0,0,0,.69-.39,6.37,6.37,0,0,0,1.72-1.27c.3-.09.59-.19.88-.3a7.52,7.52,0,0,0,5-5.26A6.23,6.23,0,0,0,51,25.7a5.11,5.11,0,0,0,1.65-3.15,3.37,3.37,0,0,0-3.05-4.19c-1.59,0-2.54,1.76-2.65,4,0,.1,0,.24,0,.41a5.72,5.72,0,0,0-.68.09,11.13,11.13,0,0,0-1.55-5.21A12.11,12.11,0,0,0,39.5,13a13.67,13.67,0,0,0-6.19-1.36,6.92,6.92,0,0,0,2-7C34.16,1,29.68-.93,25.33.45S18.41,6,19.59,9.66a7,7,0,0,0,6,4.6,11.93,11.93,0,0,0-1.23,1.05A12.3,12.3,0,0,0,21,21.19c-1.41-3-4.28-4.88-7.29-4.46-3.85.54-6.47,4.63-5.84,9.15s4.25,7.75,8.1,7.22a6.89,6.89,0,0,0,5.41-4.75,12.36,12.36,0,0,0,.86,1.91,14.72,14.72,0,0,0,9.32,7.11c-.42.06-.93.09-1.67.22l-.77.12A23.07,23.07,0,0,0,22.47,40a21.65,21.65,0,0,0-4.37,3.1,4.3,4.3,0,0,0-3.66,1l-.08.08h-.41a7.94,7.94,0,0,0-2.92.55,8.85,8.85,0,0,0-3.7,2.77,7.72,7.72,0,0,0-1.75,4.3,4.59,4.59,0,0,0,.69,2.88,2,2,0,0,0,.5.52.74.74,0,0,1,0,.09A4.45,4.45,0,0,0,7,57.87a3.59,3.59,0,0,0,2.46,1.5A3.51,3.51,0,0,0,9.87,61a3.55,3.55,0,0,0,2.74,1.56,5.83,5.83,0,0,0,2.77-.42,5.56,5.56,0,0,0,2.18-1.42,4.27,4.27,0,0,0,1.12-2.44,4,4,0,0,0,2.55-.36,4.07,4.07,0,0,0,2-3,6.91,6.91,0,0,0-1.59-5.72,3.84,3.84,0,0,0,1.09-2.57,26.12,26.12,0,0,1,2.2-1.41c.3-.18.6-.34.91-.49s.6-.28.9-.4a18.5,18.5,0,0,1,5.94-1.21h0a7.71,7.71,0,0,1,.21.89,11.43,11.43,0,0,1-.23,4.87C32,51.08,30,53,29.6,55.69a8.79,8.79,0,0,0-.17,1.55,22.58,22.58,0,0,1-6,3.8c-2.35,1.06-4.73,2-7.06,2.81-4.65,1.69-9.31,3.23-12.62,5.56A8.87,8.87,0,0,0,.17,73.51a3.13,3.13,0,0,0,.1,2.31,2.72,2.72,0,0,0,1.42,1.34,5,5,0,0,0,2.69.24,9.05,9.05,0,0,0,.94-.2s-.33.08-.94.14A5,5,0,0,1,1.75,77a2.65,2.65,0,0,1-1.3-3.42A8.6,8.6,0,0,1,4,69.77c3.29-2.19,7.6-3.73,12.28-5.34,2.34-.82,4.74-1.66,7.14-2.73,2-.88,4.33-1.7,6.05-3.13a18.55,18.55,0,0,0,1.16,4.52c.24.66.46,1.3.65,1.92a9,9,0,0,1-2.81,1.69,5.35,5.35,0,0,0-.49-.4,5.09,5.09,0,0,0-1.18-.69,3.86,3.86,0,0,0-1.41-.31,7.13,7.13,0,0,0-2-.38l-.57,0a8.71,8.71,0,0,0-5.46,2.66,9.74,9.74,0,0,0-1.81,2.57,14.13,14.13,0,0,0-1.54,6.31,10.27,10.27,0,0,0,2.2,6.39,10.59,10.59,0,0,0,5.16,2.61,20.08,20.08,0,0,0,5.07.7A13.3,13.3,0,0,0,32.35,85a11,11,0,0,0,3.15-2.1A7.69,7.69,0,0,0,37,81a4.39,4.39,0,0,0,0-4.15,4,4,0,0,0-.4-.61,4.71,4.71,0,0,0-1.45-1.37,7.72,7.72,0,0,0-3.18-1h0l-.1,0h0l-.4-.57-.08-.14c-.14-.24-.31-.51-.5-.8l-.3-.41v0l0-.14s-.06-.29-.05-.29a16.6,16.6,0,0,0,3-1.16L34,70a11.89,11.89,0,0,0,1.41-.81,12.09,12.09,0,0,0,2.47-.27,84.63,84.63,0,0,1,6.07,6.43l.88,1s0,0,0,.08c0,.2,0,.4,0,.59a5.27,5.27,0,0,0,1.84,3.64c.13.1.25.19.39.28s0,.34,0,.5a5.85,5.85,0,0,0,.66,2.91A4.48,4.48,0,0,0,49.34,86a5,5,0,0,0,2.3.7,9.79,9.79,0,0,0,4.71-.88c.3-.12.6-.25.89-.39A17.84,17.84,0,0,0,63.69,80,18.11,18.11,0,0,0,67,71.7a10.51,10.51,0,0,0-.47-4.52"/><path class="cls-1" d="M18.82,58V57.9l.07-.08a6.77,6.77,0,0,0,1.49-2.48,2.89,2.89,0,0,0,.15-1c0-.12,0-.4-.11-.46a.05.05,0,0,0-.05,0h0l0,0h0a.24.24,0,0,0,0,.08,3.16,3.16,0,0,1-.36,1.1,10,10,0,0,1-1.58,2.15c-.27.29-.55.57-.82.83h0a11.27,11.27,0,0,0-1.1,1.16c-.41.53-.23,1-.18.86a1.44,1.44,0,0,1,.39-.53c.2-.19.62-.38.89-.59l.43-.35a4.37,4.37,0,0,1-2.39,2.75,5.77,5.77,0,0,1-2.86.45,3.07,3.07,0,0,1-2.32-1.2,4.44,4.44,0,0,1-.46-2.29V58.3a5.91,5.91,0,0,0-.33-2.66.06.06,0,0,0-.05,0H9.46s0,0,0,0h0a.08.08,0,0,0,0,0h0v.07h0s0,.07,0,.13a9.08,9.08,0,0,1,0,2.36.06.06,0,0,1,0,0s0,0,0,.24v.2A3,3,0,0,1,7.51,57.6a4.37,4.37,0,0,1-.37-2.25,10.68,10.68,0,0,0,.1-2.48l0,0a.05.05,0,0,0,0,0H7.12a.11.11,0,0,0-.11.1A.12.12,0,0,0,7,53v0c0,.07-.08.54-.15,1l0,.08-.12.7a1.9,1.9,0,0,1-.2-.24,4.41,4.41,0,0,1-.44-2.62,7.74,7.74,0,0,1,1.74-3.93,9.15,9.15,0,0,1,3.39-2.69,7.91,7.91,0,0,1,2.67-.68,3.66,3.66,0,0,0-.76,2.7,4,4,0,0,0,.16.72,4.1,4.1,0,0,0,4.07,2.85,6.26,6.26,0,0,0,.68,0,5.75,5.75,0,0,0,3-1c.1-.07.22-.17.34-.27a5.91,5.91,0,0,1,1,2.22,7.7,7.7,0,0,1,.12,3.07A3.74,3.74,0,0,1,21,57.47a3.65,3.65,0,0,1-2.15.5"/><path class="cls-1" d="M17.35,43.73c-.2.21-.39.41-.55.61a3.78,3.78,0,0,0-.46.83,2.38,2.38,0,0,0,.1,2.43,2.57,2.57,0,0,0,2.29.95,3.78,3.78,0,0,0,.61-.06,7.7,7.7,0,0,0,2.58-1.21,3.57,3.57,0,0,1-1.25,2A5.45,5.45,0,0,1,18,50.34a6.14,6.14,0,0,1-.73,0A3.61,3.61,0,0,1,13.78,48a3.3,3.3,0,0,1-.14-.77,3.23,3.23,0,0,1,1.17-2.66,3.71,3.71,0,0,1,2.54-.83"/><path class="cls-1" d="M30.79,73.91l.17,0a12.53,12.53,0,0,1,3.88,1.45,5.51,5.51,0,0,1,1.36,1.14,3.89,3.89,0,0,1,.22,4.13A7.6,7.6,0,0,1,35,82.54a11.09,11.09,0,0,1-2.89,1.86C28.54,86,24.4,85.65,21.55,85a10.52,10.52,0,0,1-4.83-2.61,10,10,0,0,1-2-6,14.17,14.17,0,0,1,1.38-6A10.38,10.38,0,0,1,17.9,68a9.17,9.17,0,0,1,5-2.72,5.94,5.94,0,0,1,.7,0c.15,0,.35.05.54.08l-.1,0a4,4,0,0,0-2.43,2.05,4.72,4.72,0,0,0-.33,3.32,4.6,4.6,0,0,0,2,2.7,5.64,5.64,0,0,0,3,.83,4,4,0,0,0,2.65-1,3.74,3.74,0,0,0,.84-1.08,3.89,3.89,0,0,0,.16-.36v0l.17.37.09.1.19.2.39.42.27.29.11.11,0,.05.16.23c-.16,0-.34,0-.55,0s-.2.18,0,.24"/><path class="cls-1" d="M27.76,66.54l.25.2a14.64,14.64,0,0,1-1.6.45l-1,.12-.45.05A1.76,1.76,0,0,1,25.2,67h0v0l0,0,0,0a.08.08,0,0,0,0-.08h0s0,0,0,0l0,0h0a.07.07,0,0,0-.07,0h0a.06.06,0,0,1,.07,0h-.11a1.66,1.66,0,0,0-.81,1,3.55,3.55,0,0,0,.3,2.78,2.16,2.16,0,0,0,.9.92,2.89,2.89,0,0,0,.49.27,6,6,0,0,0,2.79.12h0l.74-.14-.05.11a3.27,3.27,0,0,1-.86,1,3.4,3.4,0,0,1-2.3.72,5.1,5.1,0,0,1-2.64-.8A4,4,0,0,1,22,70.55a4.1,4.1,0,0,1,.25-2.8,3.4,3.4,0,0,1,2-1.76,3.87,3.87,0,0,1,3.5.56"/><path class="cls-2" d="M43.61,61.6h0a7.93,7.93,0,0,1-3.35,1,17.17,17.17,0,0,0-1.5-.87,1.89,1.89,0,0,0-.33-.91,5.12,5.12,0,0,0-.64-.75A9.67,9.67,0,0,0,36.41,59c-.34-.22-.69-.42-1-.59s-.45-.2-.48-.2l0,0a.12.12,0,0,0,0,.06.08.08,0,0,0,0,.06s0,.06.13.13l.05,0c.19.13.6.41,1.1.8a12.37,12.37,0,0,1,1.14,1h0l.09.11a3.6,3.6,0,0,1,.63.88h0l-.11-.05a14.65,14.65,0,0,0-3.17-1h-.06a.12.12,0,0,0-.14.13h0a.06.06,0,0,0,0,0h0s.05,0,.21.09h0a16.92,16.92,0,0,1,2.72,1.1,19.71,19.71,0,0,1,2.73,1.68c.51.37,1,.75,1.42,1.13l.69.62,0,0a7.44,7.44,0,0,0-5.12,1.05c-.6.31-1.18.65-1.73,1a11,11,0,0,1-2.88,1.39l-.23,0c0-.16,0-.31,0-.49a14.14,14.14,0,0,0-.43-2.75h0a.1.1,0,0,1,0,0h0a0,0,0,0,0,0,0c-.18-.74-.42-1.53-.7-2.36a14,14,0,0,1-.91-7.12,10.36,10.36,0,0,1,1.5-3.69v0a12.48,12.48,0,0,0,1.37-3c.07-.27.12-.56.16-.85a2.55,2.55,0,0,0,.48.61,5.58,5.58,0,0,0,2.09,1.07,14.48,14.48,0,0,0,5.26.44,2.58,2.58,0,0,0,1.15,1,4.25,4.25,0,0,0,3.06.06,5.74,5.74,0,0,0,1.77-1l.35.14a14.89,14.89,0,0,1-.11,3.93,13.78,13.78,0,0,1-.44,1.63,18.07,18.07,0,0,1-2.49,5l0,.06c-.05.07-.07.11-.07.16s.12.1.12.1h0a2.06,2.06,0,0,0,.32-.31c.13-.14.32-.36.55-.63a9.54,9.54,0,0,0,.56,2.39c.11.35.24.71.39,1.07-.09.12-.26.32-.52.59a12.54,12.54,0,0,1-2.27,1.59L43.32,66a2.42,2.42,0,0,0-.16-1,1,1,0,0,0-.23-.33l-.18-.17-.16-.14-.1-.09-.11-.1c-.36-.32-.78-.64-1.23-1A5.67,5.67,0,0,0,43,62.43a5.84,5.84,0,0,0,.72-.61c.11-.11.19-.34-.09-.21"/><path class="cls-1" d="M31.16,36l.06.09.06.1.06.1.46.74a13.93,13.93,0,0,1-3.16-1.25L28,35.34c-.35-.3-.68-.6-1-.91a7.6,7.6,0,0,1-1.78-2.74,4.38,4.38,0,0,1,.18-3.48,5,5,0,0,1,2.69-2.3,7.5,7.5,0,0,1,3.23-.43,10.21,10.21,0,0,1,1.28.19,10.91,10.91,0,0,1,1.87.68l.34.16a.11.11,0,0,0,.14-.16L34.76,26c-.38-.64-.73-1.3-1-1.94s-.39-1-.52-1.37A13.49,13.49,0,0,1,32.52,15a3.82,3.82,0,0,1,1-1.69,2.48,2.48,0,0,1,1.67-.66,5.62,5.62,0,0,1,3.33,1.1,13.29,13.29,0,0,1,1.17.89,15.27,15.27,0,0,1,1.45,1.61l.23.3h0a.11.11,0,0,0,.11,0,.1.1,0,0,0,.08-.11l0-.38c0-.24-.06-.76-.07-1.19a11.39,11.39,0,0,1,2.85,3,10.76,10.76,0,0,1,1.61,4.92,4.45,4.45,0,0,0-.54.18,8.17,8.17,0,0,0-.24-1.9,6.45,6.45,0,0,0-.5-1.38,2.85,2.85,0,0,0-.46-.66.8.8,0,0,0-.59-.28.51.51,0,0,0-.43.23.08.08,0,0,1,.06,0,.08.08,0,0,0-.07.08.16.16,0,0,1,0,0A2.11,2.11,0,0,0,43,20.34s0,.09,0,.13l0,.19c.05.43.13.85.2,1.26l0,.15h0l.14.77c.1.55.18,1,.26,1.33a6.07,6.07,0,0,0-.74.86s-.11.18,0,.23.06,0,.14,0a.37.37,0,0,0,.13-.1,7.08,7.08,0,0,1,1.36-1.06,4.84,4.84,0,0,1,2.29-.64c0,1.76.5,2.8,1.5,3.09a3,3,0,0,0,2.28-.4,5.84,5.84,0,0,1-.07,2.34A5.93,5.93,0,0,1,48.8,31.4a8.23,8.23,0,0,1-3,1.87,13.4,13.4,0,0,1-9.2,0,8.22,8.22,0,0,1-3.17-2.07,8.64,8.64,0,0,1-1.66-2.46,11.39,11.39,0,0,1,1.59-.12c.24,0,.14-.17.14-.17s-.71-.25-.79-.27a4.16,4.16,0,0,0-1.62,0,3.29,3.29,0,0,0-2,1.31.13.13,0,0,0,0,.11h0a.13.13,0,0,0,.09,0h0l0,0h0a5.56,5.56,0,0,1,1.91-.78,7.84,7.84,0,0,1,1,3.81,13.35,13.35,0,0,0,.46,2.73A5,5,0,0,0,34.16,38a3.33,3.33,0,0,0,3,.57,7.1,7.1,0,0,0,2.47-1.36c.37-.29.71-.57,1-.82a8.32,8.32,0,0,1,2.49-1.68h0c.32,0,.57-.09.83-.14-.24.21-.49.42-.77.63a7.19,7.19,0,0,1-.87.46.22.22,0,0,0-.08.06h0c-.37.38-.77.77-1.18,1.14l-.41.33a9.53,9.53,0,0,1-4.08,2.06,3.31,3.31,0,0,1-2.23-.29,5.54,5.54,0,0,1-1.59-1.38c-1.14-1.42-1.33-1.63-1.4-1.69h0c-.19-.2-.26,0-.17.16"/><path class="cls-1" d="M43.91,22a.4.4,0,0,0-.32,0l0-.12c-.06-.41-.12-.82-.16-1.26l0-.16a2.39,2.39,0,0,1,.07-1.16.11.11,0,0,1,.11-.05c.19,0,.5.39.65.7a7.11,7.11,0,0,1,.51,1.28,8.62,8.62,0,0,1,.35,2,4.34,4.34,0,0,0-.42.22c-.2-1-.52-1.33-.76-1.42"/><path class="cls-2" d="M39.07,36.9A6.35,6.35,0,0,1,37,38a2.72,2.72,0,0,1-2.41-.47,6.28,6.28,0,0,1-1.7-3.89,4,4,0,0,1,2.49,1.12,3.77,3.77,0,0,1,.77,1.19c0,.08.05.12.1.14h0s0,0,0,0h.05s0,0,0-.06l0,0h0l0,0h0v0a3.41,3.41,0,0,0-.41-1.1A4.81,4.81,0,0,1,39.09,36a.72.72,0,0,1,0,.89"/><path class="cls-1" d="M50.85,38.71A6.36,6.36,0,0,1,53,39a5.38,5.38,0,0,1,1.11.47c.21.2.4.4.59.59a2,2,0,0,0-.52-.07,1.62,1.62,0,0,0-.71.15s-.23.2.05.21h0a3.53,3.53,0,0,1,1.77.65,5,5,0,0,1,.65.53c.17.22.33.43.47.65a9.15,9.15,0,0,1,1.29,3.74A2.55,2.55,0,0,1,57.07,48a2.19,2.19,0,0,1-1.88.48l-.49-.1-.17,0h0c-.27-.06-.49-.1-.71-.12.43-.37.48-.44.49-.48a.11.11,0,0,0,0-.12h0A1.57,1.57,0,0,0,53.1,48a1.22,1.22,0,0,0-.49,1.14.11.11,0,0,0,.15,0,.1.1,0,0,0,.06-.06v0a4.42,4.42,0,0,1,.67-.6h.06a4.29,4.29,0,0,1,.67.18l.12,0,.2.07.31.1a3.27,3.27,0,0,1-2.66,2.23,3.31,3.31,0,0,1-2.26-.57,2.7,2.7,0,0,1-1.08-1.9,4.67,4.67,0,0,1,.06-1.38c0-.29.07-.54.08-.8a7.47,7.47,0,0,0-.11-1.63c0-.21-.08-.37-.1-.45s-.07-.21-.12-.22-.12,0-.14.16v0a8.17,8.17,0,0,1,0,2.09,6,6,0,0,1-.12.61l0,.07v0a5.13,5.13,0,0,0-.18,1.6,3.22,3.22,0,0,0,.36,1.3A4.54,4.54,0,0,1,46,48.76a3.15,3.15,0,0,1-.75-1.61,12.37,12.37,0,0,1-.15-3V44c0-.3,0-.57,0-.83a3.83,3.83,0,0,0-.32-1.9c-.09-.16-.26-.1-.21.07v0h0v0a4.76,4.76,0,0,1,0,1.71c0,.14,0,.29-.05.44l0,.25a11.48,11.48,0,0,0-.09,3.08A2.32,2.32,0,0,1,42.18,46a4.72,4.72,0,0,1-.87-2.68,8.16,8.16,0,0,1,.17-2.64,6.85,6.85,0,0,1,1.17-2.46,7.2,7.2,0,0,1,2.43-2.07,4.13,4.13,0,0,1,3.08-.54,9,9,0,0,1,2.37,1.06c-.33,0-.67,0-.73.12a.11.11,0,0,0,0,.12.1.1,0,0,0,.06,0h0l.06,0a10.49,10.49,0,0,1,1.57.55,6.09,6.09,0,0,1,.79.36l.45.37a3.73,3.73,0,0,0-1.17,0c-.23,0-.76.16-.82.27s-.1.13.12.17"/><path class="cls-1" d="M45.17,50.88a4.09,4.09,0,0,1-2.61-.15,1.71,1.71,0,0,1-1-1,1,1,0,0,1,.16-.84A5.73,5.73,0,0,1,43,47.45a2.9,2.9,0,0,0,1.6.12,3.68,3.68,0,0,0,1,1.75,4.8,4.8,0,0,0,1.15.87,5.91,5.91,0,0,1-1.61.69"/><path class="cls-1" d="M36.13,67.59l1,.8a20.51,20.51,0,0,1-3.4.32,17,17,0,0,0,2.43-1.12"/><path class="cls-1" d="M59,42.55a4.2,4.2,0,0,1,.09,2.74,3,3,0,0,1-.52.95l-.19.21h0a3.79,3.79,0,0,0,0-.59,8.26,8.26,0,0,0-1.58-4,15.25,15.25,0,0,0-2.16-2.68,4.66,4.66,0,0,1,2.69,1A5,5,0,0,1,59,42.55"/><path class="cls-1" d="M51.69,86.07a4.22,4.22,0,0,1-3.47-2,5.72,5.72,0,0,1-.78-2.74v-.12a3.92,3.92,0,0,0,2.36.35,4.19,4.19,0,0,0,2.81-2,6.46,6.46,0,0,0,0-6.37,5,5,0,0,0-1.13-1.34l.05-.12,0-.08a19.55,19.55,0,0,0,1-4l0-.22,0-.17c.17-1,.33-2,.53-2.83a7.5,7.5,0,0,1,.86-1.81A4.83,4.83,0,0,1,57,60.45c2.66-.69,5.41,1.07,7,3.12a12.53,12.53,0,0,1,1.94,3.8,10.36,10.36,0,0,1,.43,4.25,17.62,17.62,0,0,1-3.15,8A17.33,17.33,0,0,1,57,85l-.77.36a10.12,10.12,0,0,1-4.54.74"/><path class="cls-1" d="M45.44,77.28l.23.28.94,1.13h0a.09.09,0,0,0,.08,0h0a2,2,0,0,0,2.17-.23,3.09,3.09,0,0,0,.51-.47,4.23,4.23,0,0,0,.88-1.34A4.53,4.53,0,0,0,50.48,74a3.79,3.79,0,0,0-.2-.69v0a.08.08,0,0,0,0-.06h0a2.42,2.42,0,0,0-.31-.42l0,0-.11-.13-.67-.81,0,0L49,71.69l-.22-.25h.12a2.86,2.86,0,0,1,.4,0,3.8,3.8,0,0,1,2.83,2.11,5.9,5.9,0,0,1,.65,2.79A5.61,5.61,0,0,1,52,79.2a3.59,3.59,0,0,1-2.29,1.67A3.36,3.36,0,0,1,47,80.25,4.93,4.93,0,0,1,45.23,77Z"/><path d="M39.45,22.95l.06.17c.45,1.26,1,2.15,1.86,1.93s1-1.27.93-2.78c0-.07,0-.14,0-.21a11.84,11.84,0,0,0-.68-3,6.76,6.76,0,0,0-.78-1.57,1.68,1.68,0,0,0-1.6-.92,1,1,0,0,0-.65.77,4.14,4.14,0,0,0-.11.91A9.8,9.8,0,0,0,38.63,20a17.9,17.9,0,0,0,.82,3"/><path d="M57.79,76.35l0,0h0l0,0h0l0,0h0s.05,0,.05-.05a.07.07,0,0,0,0-.07h0a19.08,19.08,0,0,1-2.67-4.16,32.46,32.46,0,0,1-1.83-4.63s0,0,0,0,0,0,0,0a.07.07,0,0,0,0-.05.08.08,0,0,0-.07,0h0a.07.07,0,0,0,0,0,0,0,0,0,1,0,0,.27.27,0,0,0,0,.05h0v0a9.21,9.21,0,0,0,.23,1.58,14.17,14.17,0,0,0,1.12,3.3,10.69,10.69,0,0,0,3.17,3.94"/><path d="M11.12,50.92A6.13,6.13,0,0,0,9.9,52.81l1.53-1.59c.74-.8,1.45-1.68,1.45-1.7a8.12,8.12,0,0,0-1.77,1.4"/><path d="M12.06,47.9a4,4,0,0,0-1.65.52,3.73,3.73,0,0,0-1.27,1.18l1.48-.8c.71-.42,1.43-.89,1.43-.89"/><path d="M12.26,54.44a18.18,18.18,0,0,0,1-1.65A11.61,11.61,0,0,0,14,51a7.68,7.68,0,0,0-1.12,1.61,6.2,6.2,0,0,0-.62,1.85"/><path d="M40.72,52.07a1.48,1.48,0,0,0-1.18.16,2.88,2.88,0,0,0-.83.73l-.09.11a5.7,5.7,0,0,0-1.08,2.63,3.7,3.7,0,0,0,.73,3.19A1.44,1.44,0,0,0,40,59a3.29,3.29,0,0,0,1.06-1.27,7.19,7.19,0,0,0,.7-2.75s0-.08,0-.12c.08-1.31-.22-2.48-1.09-2.75"/><path d="M45.56,57.86a3.88,3.88,0,0,0,.72-1.13,4.78,4.78,0,0,0,.4-2.25,3.73,3.73,0,0,0-.42-1.71,1.08,1.08,0,0,0-.61-.55.84.84,0,0,0-.67.12,2.8,2.8,0,0,0-.93,1.24,6.64,6.64,0,0,0-.59,2.12,5.35,5.35,0,0,0,0,1.32,1.62,1.62,0,0,0,.7,1.29,1.25,1.25,0,0,0,1.4-.45"/><path d="M31.47,74.58h0a12.49,12.49,0,0,0-6,.47,15.34,15.34,0,0,0-3.71,1.75c-.5.32-.89.6-1.12.78-.44.34-.44.36-.44.4a.07.07,0,0,0,.07.06l.06,0h0l.09,0a27.17,27.17,0,0,1,5.24-2.26,19.75,19.75,0,0,1,5.72-1c.16,0,.12-.1,0-.14"/><path class="cls-1" d="M40.44,17.75a7.13,7.13,0,0,1,.76,1.45A12.53,12.53,0,0,1,42,22.09c0,.17,0,.33,0,.47a2.72,2.72,0,0,1-.46,2,3.26,3.26,0,0,0-.23-1.51,2.61,2.61,0,0,0-1.14-1.5.82.82,0,0,0-.63,0,.71.71,0,0,0-.11.08c-.15-.58-.27-1.14-.35-1.68a9.77,9.77,0,0,1-.13-1.66c0-.28.05-1.13.4-1.23s.83.34,1.09.73"/><path class="cls-1" d="M38.65,58.46A3.55,3.55,0,0,1,38,55.75a5.56,5.56,0,0,1,.87-2.49h0l0,0h0a2.59,2.59,0,0,1,.77-.69,1.18,1.18,0,0,1,.92-.13c.6.18.93,1.12.85,2.4v.07a.34.34,0,0,1,0,0,7.27,7.27,0,0,1-.79,2.55,2.8,2.8,0,0,1-.91,1.05.91.91,0,0,1-1.11,0"/><path class="cls-1" d="M45.57,52.54a.78.78,0,0,1,.4.39,3.62,3.62,0,0,1,.37,1.55,4.68,4.68,0,0,1-.5,2,3.6,3.6,0,0,1-.66,1c-.23.24-.57.44-.79.33s-.39-.7-.42-.88a5.1,5.1,0,0,1,0-1.2,6.63,6.63,0,0,1,.47-2.12,2.29,2.29,0,0,1,.75-1,.51.51,0,0,1,.4-.08"/></g></g></svg>