<?xml version="1.0" encoding="utf-8"?>
<!-- Generator: Adobe Illustrator 21.1.0, SVG Export Plug-In . SVG Version: 6.00 Build 0)  -->
<svg version="1.1" id="logo_x5F_color" xmlns="http://www.w3.org/2000/svg" xmlns:xlink="http://www.w3.org/1999/xlink" x="0px"
	 y="0px" viewBox="0 0 120 44" enable-background="new 0 0 120 44" xml:space="preserve">
<g>
	<rect y="0" fill="none" width="120" height="44"/>
	<g>
		<path fill="#EA4335" d="M50.5,21.07c0,5.47-4.27,9.5-9.5,9.5s-9.5-4.03-9.5-9.5c0-5.51,4.27-9.5,9.5-9.5S50.5,15.57,50.5,21.07z
			 M46.34,21.07c0-3.42-2.47-5.76-5.34-5.76s-5.34,2.34-5.34,5.76c0,3.38,2.47,5.76,5.34,5.76S46.34,24.46,46.34,21.07z"/>
		<path fill="#FBBC05" d="M71.5,21.07c0,5.47-4.27,9.5-9.5,9.5s-9.5-4.03-9.5-9.5c0-5.51,4.27-9.5,9.5-9.5S71.5,15.57,71.5,21.07z
			 M67.34,21.07c0-3.42-2.47-5.76-5.34-5.76c-2.87,0-5.34,2.34-5.34,5.76c0,3.38,2.47,5.76,5.34,5.76
			C64.87,26.83,67.34,24.46,67.34,21.07z"/>
		<path fill="#4285F4" d="M91.63,12.15v17.06c0,7.02-4.14,9.9-9.04,9.9c-4.61,0-7.38-3.1-8.42-5.62l3.64-1.51
			c0.65,1.55,2.23,3.38,4.79,3.38c3.13,0,5.08-1.94,5.08-5.58v-1.37h-0.14c-0.94,1.15-2.74,2.16-5,2.16c-4.75,0-9.03-4.14-9.03-9.47
			c0-5.36,4.27-9.54,9.03-9.54c2.27,0,4.07,1.01,5,2.12h0.14v-1.55H91.63z M87.96,21.11c0-3.35-2.23-5.79-5.08-5.79
			c-2.88,0-5.21,2.45-5.21,5.79c0,3.31,2.33,5.72,5.21,5.72C85.73,26.83,87.96,24.42,87.96,21.11z"/>
		<path fill="#34A853" d="M99,2.07V30h-4.18V2.07H99z"/>
		<path fill="#EA4335" d="M115.23,24.2l3.24,2.16c-1.04,1.55-3.56,4.21-7.92,4.21c-5.4,0-9.43-4.18-9.43-9.5
			c0-5.65,4.07-9.5,8.96-9.5c4.93,0,7.34,3.92,8.13,6.05l0.43,1.08l-12.71,5.26c0.97,1.91,2.48,2.88,4.61,2.88
			S114.15,25.79,115.23,24.2z M105.26,20.79l8.49-3.53c-0.47-1.19-1.87-2.02-3.53-2.02C108.1,15.24,105.15,17.11,105.26,20.79z"/>
		<path fill="#4285F4" d="M29.48,14.2c0.16,0.97,0.23,1.92,0.23,2.81c0,3.02-0.77,6.77-3.44,9.43c-2.59,2.7-5.9,4.14-10.29,4.14
			C7.84,30.58,1,23.95,1,15.82C1,7.68,7.84,1.06,15.97,1.06c4.5,0,7.7,1.76,10.12,4.07l-2.84,2.84c-1.73-1.62-4.07-2.88-7.27-2.88
			c-5.94,0-10.58,4.79-10.58,10.73c0,5.94,4.64,10.73,10.58,10.73c3.85,0,6.05-1.55,7.45-2.95c1.15-1.15,1.93-2.81,2.23-5.36H16
			V14.2L29.48,14.2z"/>
	</g>
</g>
</svg>
