<?xml version="1.0" encoding="utf-8"?>
<!-- Generator: Adobe Illustrator 21.1.0, SVG Export Plug-In . SVG Version: 6.00 Build 0)  -->
<svg version="1.1" id="Logo" xmlns="http://www.w3.org/2000/svg" xmlns:xlink="http://www.w3.org/1999/xlink" x="0px" y="0px"
	 viewBox="0 0 304 130" style="enable-background:new 0 0 304 130;" xml:space="preserve">
<style type="text/css">
	.st0{fill:none;}
	.st1{fill:#009CB6;}
	.st2{fill:#FFFFFF;}
</style>
<g>
	<rect x="-22.4" y="-21" class="st0" width="344.9" height="175"/>
	<g>
		<g>
			<path class="st1" d="M139.4,92h-8.8V67.8c0-6.6,2.9-12.3,8.2-16c5.6-4,13.2-5.1,19.8-2.9l-2.9,8.3c-3.9-1.3-8.5-0.6-11.8,1.7
				c-2,1.5-4.5,4.2-4.5,8.9L139.4,92z"/>
			<path class="st1" d="M242.8,70c0,12.1,9.4,22,21.6,22c4.9,0,8.1-1.3,10.7-3.4V92h8.8c0,0,0-14.8,0-24.9c0-7.5-2.4-11.6-5.5-14.3
				c-3.8-3.3-8.9-4.8-13.6-4.8C252.7,48,242.8,57.8,242.8,70z M251.6,70c0-7.3,6-13.2,13.2-13.2c3.6,0,6.4,1.6,7.6,2.7
				c1.7,1.7,2.7,3.6,2.7,8.9c0,6.4,0,10.2,0,10.2c-2.5,3.1-6.3,4.9-10.3,4.9C257.5,83.5,251.6,77.3,251.6,70z"/>
			<path class="st1" d="M232.1,48l-10.5,33.8l0,0l0,0L211,48h-9.3c0,0,11.8,36.1,12.9,39s3.5,5,6.9,5s5.7-2.1,6.9-5
				c1.2-2.9,12.9-39,12.9-39H232.1z"/>
			<path class="st1" d="M182.4,83.2c-5.7,0-10.6-3.7-12.5-8.8c0,0,23.6,0,29.3,0c3-11.4-4.4-26.4-19.1-26.4
				c-10.9,0-19.8,8.1-19.8,22c0,12.1,9.9,22,22,22c6.2,0,11.9-2.2,17.6-6.6l-5.5-6.9C190.4,81.7,186.5,83.2,182.4,83.2z M180.2,56.8
				c5.7,0,10.4,4.3,11,9.9h-21.9C169.8,61.1,174.5,56.8,180.2,56.8z"/>
			<path class="st1" d="M284.8,53.7v-5.1H283V48h4.3v0.6h-1.8v5.1H284.8z"/>
			<path class="st1" d="M293.3,53.7V49l-1.9,4.7h-0.3l-1.9-4.7v4.7h-0.7V48h1l1.8,4.3l1.8-4.3h1v5.7H293.3z"/>
			<circle class="st1" cx="65.1" cy="66.5" r="59.1"/>
		</g>
		<g>
			<g>
				<circle class="st2" cx="89.3" cy="37.1" r="7.1"/>
			</g>
			<g>
				<path class="st2" d="M108.9,83.4V48.1h-8.3v32l-0.1,0.1c-3.2,2.5-7.1,3.8-11.2,3.8c-2.3,0-5.3-0.2-7.7-1.7
					C78.5,80.4,78,77,78,70.5V48.1h-8.3v21.8c0,9.6,0.9,14.7,6.3,18.4c3.4,2.3,8.1,3.6,13.4,3.6C101,91.8,108.3,84.1,108.9,83.4z"/>
			</g>
			<g>
				<path class="st2" d="M50.1,57.7c3.1,1.9,3.6,5.3,3.6,11.8v22.4H62V70c0-9.6-0.9-14.7-6.3-18.4c-3.4-2.3-8.1-3.6-13.4-3.6
					c-11.8,0-19,7.8-19.7,8.5v35.3h8.3v-32l0.1-0.1c3.2-2.5,7.1-3.8,11.2-3.8C44.7,56,47.7,56.2,50.1,57.7z"/>
				<path class="st2" d="M62.3,70L62.3,70L62.3,70z"/>
			</g>
		</g>
	</g>
</g>
</svg>
