<?xml version="1.0" encoding="UTF-8" standalone="no"?>
<svg
   xmlns:dc="http://purl.org/dc/elements/1.1/"
   xmlns:cc="http://creativecommons.org/ns#"
   xmlns:rdf="http://www.w3.org/1999/02/22-rdf-syntax-ns#"
   xmlns:svg="http://www.w3.org/2000/svg"
   xmlns="http://www.w3.org/2000/svg"
   version="1.1"
   id="svg2"
   viewBox="0 0 359.99999 92.999997"
   height="93"
   width="360">
  <title
     id="title4201">SIGCHI Logo</title>
  <defs
     id="defs4" />
  <metadata
     id="metadata7">
    <rdf:RDF>
      <cc:Work
         rdf:about="">
        <dc:format>image/svg+xml</dc:format>
        <dc:type
           rdf:resource="http://purl.org/dc/dcmitype/StillImage" />
        <dc:title>SIGCHI Logo</dc:title>
        <dc:date>2016-03-02</dc:date>
        <dc:creator>
          <cc:Agent>
            <dc:title />
          </cc:Agent>
        </dc:creator>
        <dc:rights>
          <cc:Agent>
            <dc:title />
          </cc:Agent>
        </dc:rights>
        <dc:contributor>
          <cc:Agent>
            <dc:title>http://mro.name/me</dc:title>
          </cc:Agent>
        </dc:contributor>
        <dc:source>http://identitystandards.acm.org/sigs/SIGCHI_logo.jpg</dc:source>
        <cc:license
           rdf:resource="http://creativecommons.org/publicdomain/zero/1.0/" />
      </cc:Work>
      <cc:License
         rdf:about="http://creativecommons.org/publicdomain/zero/1.0/">
        <cc:permits
           rdf:resource="http://creativecommons.org/ns#Reproduction" />
        <cc:permits
           rdf:resource="http://creativecommons.org/ns#Distribution" />
        <cc:permits
           rdf:resource="http://creativecommons.org/ns#DerivativeWorks" />
      </cc:License>
    </rdf:RDF>
  </metadata>
  <g
     style="opacity:1"
     id="text">
    <g
       transform="matrix(2.1485586,0,0,2.1485586,-174.48355,-112.2281)"
       id="g3393">
      <path
         id="path3395"
         style="fill:#000000;fill-rule:nonzero"
         d="m 138.476,65.151 c -1.072,-1.937 -3.217,-3.158 -5.481,-3.158 -3.366,0 -5.749,2.353 -5.749,5.69 0,1.787 0.834,3.098 2.324,4.021 l 4.051,2.145 c 1.936,0.953 4.528,2.025 4.528,4.557 0,2.979 -2.592,5.303 -5.541,5.303 -2.711,0 -4.468,-1.669 -5.421,-4.052 l -1.251,0.566 c 1.042,2.89 3.485,4.826 6.613,4.826 3.634,0 7.03,-2.8 7.03,-6.524 0,-2.025 -0.864,-3.395 -2.562,-4.468 l -4.29,-2.234 c -1.817,-0.864 -4.051,-1.847 -4.051,-4.2 0,-2.353 1.817,-4.289 4.23,-4.289 2.115,0 3.545,1.042 4.558,2.651 l 1.012,-0.834 z" />
      <rect
         id="rect3397"
         style="fill:#000000;fill-rule:nonzero"
         height="22.459999"
         width="1.4299999"
         y="62.291"
         x="149.23" />
      <path
         id="path3399"
         style="fill:#000000;fill-rule:nonzero"
         d="m 173.924,73.938 0,1.341 8.043,0 c -0.09,2.442 -0.805,4.319 -2.741,5.957 -1.847,1.49 -4.2,2.473 -6.613,2.473 -5.6,0 -10.187,-4.647 -10.187,-10.188 0,-5.392 4.706,-10.187 10.187,-10.187 3.634,0 6.673,1.846 8.669,4.825 l 1.161,-0.923 c -2.353,-3.217 -5.659,-5.243 -9.74,-5.243 -6.435,0 -11.707,5.183 -11.707,11.617 0,6.196 5.302,11.439 11.528,11.439 3.157,0 6.374,-1.311 8.519,-3.634 1.996,-2.175 2.413,-4.647 2.353,-7.477 l -9.472,0 z" />
      <path
         id="path3401"
         style="fill:#000000;fill-rule:nonzero"
         d="m 209.117,63.501 0,4.014 c -1.959,-1.638 -3.985,-2.458 -6.08,-2.458 -2.307,0 -4.252,0.829 -5.832,2.488 -1.59,1.648 -2.385,3.665 -2.385,6.05 0,2.356 0.795,4.344 2.385,5.964 1.59,1.619 3.539,2.429 5.847,2.429 1.193,0 2.206,-0.194 3.04,-0.582 0.465,-0.194 0.948,-0.456 1.447,-0.786 0.499,-0.329 1.025,-0.727 1.578,-1.192 l 0,4.087 c -1.939,1.095 -3.976,1.643 -6.109,1.643 -3.209,0 -5.949,-1.12 -8.218,-3.36 -2.259,-2.259 -3.389,-4.984 -3.389,-8.174 0,-2.86 0.946,-5.41 2.837,-7.65 2.327,-2.744 5.338,-4.116 9.032,-4.116 2.017,0 3.966,0.547 5.847,1.643 z" />
      <path
         id="path3403"
         style="fill:#000000;fill-rule:nonzero"
         d="m 221.28,71.079 9.687,0 0,-8.785 3.389,0 0,22.457 -3.389,0 0,-10.487 -9.687,0 0,10.487 -3.389,0 0,-22.457 3.389,0 0,8.785 z" />
      <rect
         id="rect3405"
         style="fill:#000000;fill-rule:nonzero"
         height="22.457001"
         width="3.3889999"
         y="62.293999"
         x="244.80099" />
    </g>
  </g>
  <g
     style="display:inline"
     id="circle">
    <path
       id="path4249"
       d="M 33.053732,44.421118 A 14.440724,38.824501 72 0 0 0.5898684,70.151751 14.440724,38.824501 72 0 0 41.978391,71.888391 14.440724,38.824501 72 0 0 74.43978,46.15646 14.440724,38.824501 72 0 0 33.053732,44.421118 Z m 0.83774,2.818472 A 11.607764,31.224501 72 0 1 67.174754,48.630044 11.607764,31.224501 72 0 1 41.065857,69.320079 11.607764,31.224501 72 0 1 7.7820167,67.927912 11.607764,31.224501 72 0 1 33.89147,47.239591 Z"
       style="display:inline;fill:#8c9aa8;fill-opacity:1;stroke:none;stroke-width:0.09999999;stroke-linecap:round;stroke-linejoin:miter;stroke-miterlimit:4;stroke-dasharray:none;stroke-dashoffset:0;stroke-opacity:1" />
  </g>
  <g
     id="person">
    <path
       id="path4256"
       d="m 23.060499,2.119217 c 1.494929,8.372326 5.338167,11.030526 5.165705,16.685967 -3.299584,15.696735 -3.591325,13.822592 -4.698102,38.782613 5.827914,-19.39277 7.799061,-30.641299 26.38231,4.973058 C 36.880061,10.923843 33.146644,22.90097 56.038,8.2784884 31.593734,17.045261 30.663404,10.852241 23.060499,2.119217 Z"
       style="fill:#f39507;fill-opacity:1;fill-rule:evenodd;stroke:none;stroke-width:1px;stroke-linecap:butt;stroke-linejoin:miter;stroke-opacity:1" />
    <path
       id="path4258"
       d="M 36.63646,0.00326188 C 42.445021,0.1935361 38.276783,10.274254 35.742878,10.853641 31.319706,11.865017 31.543992,-0.16355492 36.63646,0.00326188 Z"
       style="fill:#f39507;fill-opacity:1;fill-rule:evenodd;stroke:none;stroke-width:1px;stroke-linecap:butt;stroke-linejoin:miter;stroke-opacity:1" />
  </g>
</svg>
