<?xml version="1.0" encoding="utf-8"?>
<!-- Generator: Adobe Illustrator 21.1.0, SVG Export Plug-In . SVG Version: 6.00 Build 0)  -->
<svg version="1.1" id="Layer_1" xmlns="http://www.w3.org/2000/svg" xmlns:xlink="http://www.w3.org/1999/xlink" x="0px" y="0px"
	 viewBox="0 0 920.5 219.2" style="enable-background:new 0 0 920.5 219.2;" xml:space="preserve">
<style type="text/css">
	.st0{fill:#272525;}
</style>
<g>
	<path class="st0" d="M2.7,162.6C2.6,148,1.3,131.1,0,118.2c-0.3-2.8,1.7-5.4,4.5-5.8l0.2,0c2.7-0.4,5.3,1.3,6,4
		c1.7,6.5,3.4,11.3,7.7,18.4c3.2,5,14.4,22.4,38,22.4c17.2,0,29.8-12.1,29.8-27.5c0-14.2-11.4-19.9-33.9-28.4
		C45.7,98.5,38.9,96,32.2,93C23.1,88.7,1.6,78.6,1.6,50.7c0-31.1,24.9-49.4,56.8-49.4c7.7,0,18.7,1.1,29.7,6.1
		c2.4,1.1,5.3,0.3,6.7-2l1.8-2.9c1-1.5,2.6-2.4,4.4-2.5l0,0c2.9-0.1,5.3,2.1,5.5,5c1,13.5,2.5,25.6,4.4,38.9
		c0.4,2.9-1.6,5.7-4.6,6.1l0,0c-2.5,0.4-4.9-1.1-5.8-3.4C97.7,39,96,35.5,92.9,30.8c-7.6-10.3-17.6-17.4-30.2-17.4
		c-16.2,0-25.9,13.3-25.9,24c0,12.4,11,17.6,15.8,19.9c9.8,4.8,20.1,8,30.4,12.1c16.5,6.4,39.1,16.2,39.1,46.5
		c0,29.8-23.8,54.7-61.6,54.7c-18.8,0-31-5.9-38.1-10.4c-2.5-1.6-5.9-0.8-7.4,1.8l-2,3.3c-0.9,1.5-2.5,2.4-4.2,2.6l-0.4,0
		C5.4,168.1,2.8,165.7,2.7,162.6z"/>
	<path class="st0" d="M124.4,161.3c0-2.3,1.6-4.2,3.9-4.6c3.5-0.6,7.6-2.1,8.3-6.5c0.7-5.3,0.7-19,0.7-22.4c0-8-0.2-21.1-0.2-29.1
		c0-11.5-3.8-14.6-9.3-16.2c-2-0.6-3.3-2.4-3.3-4.5v-0.5c0-2.3,1.6-4.2,3.9-4.6c11.4-2,28.6-6.9,37.7-10c2.4-0.8,5.1,0.5,5.9,2.9
		c0.2,0.6,0.4,1.2,0.5,1.8c0.8,2.9,4.2,4.2,6.9,2.7c8.7-5,16.8-8.8,28.9-8.8c8.7,0,17.4,2.3,24.5,7.3c11.2,7.7,13,19.6,13.9,32.1
		c0,0.1,0,0.3,0,0.4v19.7c0,3.4-0.5,21.3-0.5,25.2c0,5.8,1.6,9.3,9.1,10.7c2.2,0.4,3.7,2.4,3.7,4.6v0c0,2.7-2.3,4.8-4.9,4.6
		c-6.5-0.4-16.3-0.7-32.4-0.7c-9.1,0-14.1,0.2-18.7,0.7c-2.7,0.2-5.1-1.9-5.1-4.6v-1c0-2.1,1.4-3.9,3.4-4.5c6.7-1.8,7.5-5,7.3-18.9
		l-0.5-35.7c-0.2-11-0.7-23.6-15.6-23.6c-6.2,0-11,2.3-15.6,5.8c-1.2,0.9-1.9,2.4-1.9,3.9c0.4,11.5,0.4,44,0.4,54.2
		c0,10.5,1.8,13.4,7.4,14.9c2,0.5,3.3,2.4,3.3,4.5v0.6c0,2.7-2.3,4.8-4.9,4.6c-7.8-0.5-17.8-0.8-36.5-0.8c-7.2,0-11.4,0.2-15.3,0.6
		c-2.7,0.3-5.1-1.9-5.1-4.6V161.3z"/>
	<path class="st0" d="M377.8,149.6c2.1,1.7,2.4,4.9,0.4,6.9c-11,11.1-21.9,13.4-27.9,13.4c-5.7,0-12.4-2.1-17.2-5.7
		c-1.8-1.4-3.2-2.9-4.2-4.4c-1.5-1.9-4.2-2.4-6.2-1c-6.3,4.1-19.3,11.4-33.7,11.4c-21.1,0-26.1-14.2-26.1-22.7
		c0-26.1,40.3-37.1,58.5-40.3c2.2-0.4,3.8-2.3,3.8-4.5c0-7.1,0-15.4-0.9-18.3c-2.7-8-11.9-8-13-8c-7.6,0-11.7,4.6-13,9.6
		c-0.7,3-0.7,6.2-1.4,9.2c-1.8,7.8-8.2,10.8-14,10.8c-7.1,0-13.7-4.6-13.7-13c0-16.9,31.4-30.7,59.7-30.7c19.7,0,34.1,6.4,34.1,25.4
		l-0.5,51c-0.2,3.9-0.5,12.8,5.5,12.8c1.5,0,2.9-0.8,4.2-1.8C373.8,148.3,376.2,148.3,377.8,149.6L377.8,149.6z M324.9,123.2
		c0-3-2.9-5.2-5.8-4.5c-7.7,2-18,6.5-18,18.5c0,6.2,3.2,13,11.9,13c4.4,0,7.1-1.3,9.9-3.2c1.3-0.9,2-2.3,2-3.8V123.2z"/>
	<path class="st0" d="M388,100.1c0.4-17.5-2.1-21.6-9.9-23.8c-1.9-0.5-3.2-2.3-3.2-4.3v-1.1c0-2.2,1.7-4.1,3.9-4.4
		c15.5-1.7,31.8-5.9,39.8-8.1c2.4-0.7,4.9,0.8,5.4,3.3c0.2,1.1,0.5,2.4,0.8,4c0.5,3,4,4.7,6.6,3c9-5.8,17.8-8.8,29.1-8.8
		c27.7,0,44.9,23.8,44.9,49c0,34.6-24.5,58.6-53.1,58.6c-8.8,0-15.2-2.2-19.6-4.6c-2.9-1.6-6.5,0.5-6.5,3.8v26.4
		c0,8.9,0.6,15.7,10,17.3c2.1,0.3,3.5,2.2,3.5,4.3v0c0,2.5-2,4.4-4.5,4.4c-15.9-0.4-26.8-0.6-34-0.6c-8.6,0-14.2,0.2-21.5,0.5
		c-2.5,0.1-4.6-1.9-4.6-4.4v-0.6c0-2.1,1.5-4,3.6-4.4c8.5-1.4,9.2-6.1,9.2-12.7c0.2-4.3,0.2-17.9,0.2-22.9L388,100.1z M441.8,154.3
		c16.9,0,23.1-23.6,23.1-39.1c0-16.5-6.9-38.4-23.8-38.4c-15.3,0-15.3,15.8-15.3,20.6c0,5.3,0.2,30.9,0.2,36.6
		C426,141.3,426,154.3,441.8,154.3z"/>
	<path class="st0" d="M625.6,161c0,3-2.6,5.4-5.6,5.2c-9.3-0.7-15.4-0.7-39.7-0.7c-13.3,0-18.6,0.2-26.4,0.7c-3,0.2-5.6-2.2-5.6-5.2
		v0c0-2.6,1.9-4.8,4.5-5.1c12.8-1.8,13.4-6.4,13.4-35.4V47.7c-0.2-17.4-0.5-22.7-2.1-25.9c-1.7-4.1-4.5-5-11.4-6.2
		c-2.5-0.4-4.3-2.6-4.3-5.1v-0.3c0-2.9,2.4-5.3,5.3-5.2c12.9,0.4,25.7,0.5,38.6,0.5c12.9,0,21.2-0.3,28.3-0.5
		c2.9-0.1,5.4,2.3,5.4,5.2v0c0,2.6-1.9,4.8-4.5,5.2c-13.6,1.7-13.6,5.8-13.6,36.2l0.2,70.9c0.5,24,0.7,25.4,3.4,29.1
		c2,2.3,5,3.5,9.7,4.2c2.6,0.3,4.5,2.6,4.5,5.1V161z"/>
	<path class="st0" d="M631.2,161.3c0-2.3,1.6-4.2,3.9-4.6c3.5-0.6,7.6-2.1,8.3-6.5c0.7-5.3,0.7-19,0.7-22.4c0-8-0.2-21.1-0.2-29.1
		c0-11.5-3.8-14.6-9.3-16.2c-2-0.6-3.3-2.4-3.3-4.5v-0.5c0-2.3,1.6-4.2,3.9-4.6c11.4-2,28.6-6.9,37.7-10c2.4-0.8,5.1,0.5,5.9,2.9
		c0.2,0.6,0.4,1.2,0.5,1.8c0.8,2.9,4.2,4.2,6.9,2.7c8.7-5,16.8-8.8,28.9-8.8c8.7,0,17.4,2.3,24.5,7.3c11.2,7.7,13,19.6,13.9,32.1
		c0,0.1,0,0.3,0,0.4v19.7c0,3.4-0.5,21.3-0.5,25.2c0,5.8,1.6,9.3,9.1,10.7c2.2,0.4,3.7,2.4,3.7,4.6v0c0,2.7-2.3,4.8-4.9,4.6
		c-6.5-0.4-16.3-0.7-32.4-0.7c-9.1,0-14.1,0.2-18.7,0.7c-2.7,0.2-5.1-1.9-5.1-4.6v-1c0-2.1,1.4-3.9,3.4-4.5c6.7-1.8,7.5-5,7.3-18.9
		l-0.5-35.7c-0.2-11-0.7-23.6-15.6-23.6c-6.2,0-11,2.3-15.6,5.8c-1.2,0.9-1.9,2.4-1.9,3.9c0.4,11.5,0.4,44,0.4,54.2
		c0,10.5,1.8,13.4,7.4,14.9c2,0.5,3.3,2.4,3.3,4.5v0.6c0,2.7-2.3,4.8-4.9,4.6c-7.8-0.5-17.8-0.8-36.5-0.8c-7.2,0-11.4,0.2-15.3,0.6
		c-2.7,0.3-5.1-1.9-5.1-4.6V161.3z"/>
	<path class="st0" d="M868.9,141.4c2.9,2.1,3.3,6.3,0.8,8.8c-14.1,14-32.2,19.8-47.4,19.8c-32.7,0-56.8-22.7-56.8-53.8
		c0-32.7,27.9-53.8,62-53.8c22.4,0,43.7,9.8,43.7,26.3c0,7.8-6.6,14.4-14.4,14.4c-3.4,0-7.6-1.6-10.1-4.1c-2.1-1.8-2.5-3-6.9-12.8
		c-2.1-4.3-6.6-12.1-13.7-12.1c-13.3,0-16.9,22.7-16.9,33.9c0,25.9,14.6,43.3,30.7,43.3c8.5,0,15.5-3.9,21.8-9.4
		C863.7,139.9,866.7,139.8,868.9,141.4L868.9,141.4z"/>
	<path class="st0" d="M899.7,128.7c11.2,0,20.8,8.9,20.8,20.8c0,11.7-9.6,20.6-20.6,20.6c-12.1,0-20.6-9.8-20.6-20.1
		C879.3,135.8,890.3,128.7,899.7,128.7z"/>
</g>
</svg>
